<svg xmlns="http://www.w3.org/2000/svg" width="404" height="425" viewBox="0 0 404 425" fill="none"><circle cx="4.42868" cy="128.643" r="3.29936" transform="rotate(-26.5718 4.42868 128.643)" fill="#F3F1FA"></circle><circle cx="80.0794" cy="279.901" r="3.29936" transform="rotate(-26.5718 80.0794 279.901)" fill="#F3F1FA"></circle><circle cx="133.764" cy="63.9594" r="3.29936" transform="rotate(-26.5718 133.764 63.9594)" fill="#F3F1FA"></circle><circle cx="209.414" cy="215.213" r="3.29936" transform="rotate(-26.5718 209.414 215.213)" fill="#F3F1FA"></circle><circle cx="9.83811" cy="139.463" r="3.29936" transform="rotate(-26.5718 9.83811 139.463)" fill="#F3F1FA"></circle><circle cx="85.4889" cy="290.717" r="3.29936" transform="rotate(-26.5718 85.4889 290.717)" fill="#F3F1FA"></circle><circle cx="139.173" cy="74.7758" r="3.29936" transform="rotate(-26.5718 139.173 74.7758)" fill="#F3F1FA"></circle><circle cx="214.824" cy="226.034" r="3.29936" transform="rotate(-26.5718 214.824 226.034)" fill="#F3F1FA"></circle><circle cx="15.2516" cy="150.284" r="3.29936" transform="rotate(-26.5718 15.2516 150.284)" fill="#F3F1FA"></circle><circle cx="90.9023" cy="301.541" r="3.29936" transform="rotate(-26.5718 90.9023 301.541)" fill="#F3F1FA"></circle><circle cx="144.587" cy="85.5961" r="3.29936" transform="rotate(-26.5718 144.587 85.5961)" fill="#F3F1FA"></circle><circle cx="220.237" cy="236.854" r="3.29936" transform="rotate(-26.5718 220.237 236.854)" fill="#F3F1FA"></circle><circle cx="20.6611" cy="161.1" r="3.29936" transform="rotate(-26.5718 20.6611 161.1)" fill="#F3F1FA"></circle><circle cx="96.3119" cy="312.358" r="3.29936" transform="rotate(-26.5718 96.3119 312.358)" fill="#F3F1FA"></circle><circle cx="149.996" cy="96.4164" r="3.29936" transform="rotate(-26.5718 149.996 96.4164)" fill="#F3F1FA"></circle><circle cx="225.647" cy="247.67" r="3.29936" transform="rotate(-26.5718 225.647 247.67)" fill="#F3F1FA"></circle><circle cx="26.0746" cy="171.92" r="3.29936" transform="rotate(-26.5718 26.0746 171.92)" fill="#F3F1FA"></circle><circle cx="101.725" cy="323.178" r="3.29936" transform="rotate(-26.5718 101.725 323.178)" fill="#F3F1FA"></circle><circle cx="155.41" cy="107.237" r="3.29936" transform="rotate(-26.5718 155.41 107.237)" fill="#F3F1FA"></circle><circle cx="231.06" cy="258.491" r="3.29936" transform="rotate(-26.5718 231.06 258.491)" fill="#F3F1FA"></circle><circle cx="31.4867" cy="182.745" r="3.29936" transform="rotate(-26.5718 31.4867 182.745)" fill="#F3F1FA"></circle><circle cx="107.137" cy="334.002" r="3.29936" transform="rotate(-26.5718 107.137 334.002)" fill="#F3F1FA"></circle><circle cx="160.822" cy="118.057" r="3.29936" transform="rotate(-26.5718 160.822 118.057)" fill="#F3F1FA"></circle><circle cx="236.473" cy="269.315" r="3.29936" transform="rotate(-26.5718 236.473 269.315)" fill="#F3F1FA"></circle><circle cx="36.9001" cy="193.565" r="3.29936" transform="rotate(-26.5718 36.9001 193.565)" fill="#F3F1FA"></circle><circle cx="112.547" cy="344.819" r="3.29936" transform="rotate(-26.5718 112.547 344.819)" fill="#F3F1FA"></circle><circle cx="166.235" cy="128.877" r="3.29936" transform="rotate(-26.5718 166.235 128.877)" fill="#F3F1FA"></circle><circle cx="241.882" cy="280.131" r="3.29936" transform="rotate(-26.5718 241.882 280.131)" fill="#F3F1FA"></circle><circle cx="42.3097" cy="204.385" r="3.29936" transform="rotate(-26.5718 42.3097 204.385)" fill="#F3F1FA"></circle><circle cx="117.96" cy="355.639" r="3.29936" transform="rotate(-26.5718 117.96 355.639)" fill="#F3F1FA"></circle><circle cx="171.645" cy="139.698" r="3.29936" transform="rotate(-26.5718 171.645 139.698)" fill="#F3F1FA"></circle><circle cx="247.296" cy="290.952" r="3.29936" transform="rotate(-26.5718 247.296 290.952)" fill="#F3F1FA"></circle><circle cx="47.7191" cy="215.202" r="3.29936" transform="rotate(-26.5718 47.7191 215.202)" fill="#F3F1FA"></circle><circle cx="123.37" cy="366.459" r="3.29936" transform="rotate(-26.5718 123.37 366.459)" fill="#F3F1FA"></circle><circle cx="177.054" cy="150.514" r="3.29936" transform="rotate(-26.5718 177.054 150.514)" fill="#F3F1FA"></circle><circle cx="252.705" cy="301.772" r="3.29936" transform="rotate(-26.5718 252.705 301.772)" fill="#F3F1FA"></circle><circle cx="53.1325" cy="226.022" r="3.29936" transform="rotate(-26.5718 53.1325 226.022)" fill="#F3F1FA"></circle><circle cx="128.783" cy="377.28" r="3.29936" transform="rotate(-26.5718 128.783 377.28)" fill="#F3F1FA"></circle><circle cx="182.468" cy="161.334" r="3.29936" transform="rotate(-26.5718 182.468 161.334)" fill="#F3F1FA"></circle><circle cx="258.118" cy="312.592" r="3.29936" transform="rotate(-26.5718 258.118 312.592)" fill="#F3F1FA"></circle><circle cx="58.5421" cy="236.842" r="3.29936" transform="rotate(-26.5718 58.5421 236.842)" fill="#F3F1FA"></circle><circle cx="134.193" cy="388.096" r="3.29936" transform="rotate(-26.5718 134.193 388.096)" fill="#F3F1FA"></circle><circle cx="187.877" cy="172.155" r="3.29936" transform="rotate(-26.5718 187.877 172.155)" fill="#F3F1FA"></circle><circle cx="263.528" cy="323.409" r="3.29936" transform="rotate(-26.5718 263.528 323.409)" fill="#F3F1FA"></circle><circle cx="63.9555" cy="247.662" r="3.29936" transform="rotate(-26.5718 63.9555 247.662)" fill="#F3F1FA"></circle><circle cx="139.606" cy="398.916" r="3.29936" transform="rotate(-26.5718 139.606 398.916)" fill="#F3F1FA"></circle><circle cx="193.291" cy="182.975" r="3.29936" transform="rotate(-26.5718 193.291 182.975)" fill="#F3F1FA"></circle><circle cx="268.941" cy="334.233" r="3.29936" transform="rotate(-26.5718 268.941 334.233)" fill="#F3F1FA"></circle><circle cx="69.365" cy="258.479" r="3.29936" transform="rotate(-26.5718 69.365 258.479)" fill="#F3F1FA"></circle><circle cx="145.016" cy="409.737" r="3.29936" transform="rotate(-26.5718 145.016 409.737)" fill="#F3F1FA"></circle><circle cx="198.7" cy="193.791" r="3.29936" transform="rotate(-26.5718 198.7 193.791)" fill="#F3F1FA"></circle><circle cx="274.351" cy="345.049" r="3.29936" transform="rotate(-26.5718 274.351 345.049)" fill="#F3F1FA"></circle><circle cx="74.7811" cy="269.303" r="3.29936" transform="rotate(-26.5718 74.7811 269.303)" fill="#F3F1FA"></circle><circle cx="150.428" cy="420.557" r="3.29936" transform="rotate(-26.5718 150.428 420.557)" fill="#F3F1FA"></circle><circle cx="204.116" cy="204.62" r="3.29936" transform="rotate(-26.5718 204.116 204.62)" fill="#F3F1FA"></circle><circle cx="279.763" cy="355.873" r="3.29936" transform="rotate(-26.5718 279.763 355.873)" fill="#F3F1FA"></circle><circle cx="15.2502" cy="123.233" r="3.29936" transform="rotate(-26.5718 15.2502 123.233)" fill="#F3F1FA"></circle><circle cx="90.901" cy="274.491" r="3.29936" transform="rotate(-26.5718 90.901 274.491)" fill="#F3F1FA"></circle><circle cx="144.585" cy="58.5453" r="3.29936" transform="rotate(-26.5718 144.585 58.5453)" fill="#F3F1FA"></circle><circle cx="220.236" cy="209.803" r="3.29936" transform="rotate(-26.5718 220.236 209.803)" fill="#F3F1FA"></circle><circle cx="20.6598" cy="134.053" r="3.29936" transform="rotate(-26.5718 20.6598 134.053)" fill="#F3F1FA"></circle><circle cx="96.3105" cy="285.307" r="3.29936" transform="rotate(-26.5718 96.3105 285.307)" fill="#F3F1FA"></circle><circle cx="149.995" cy="69.3656" r="3.29936" transform="rotate(-26.5718 149.995 69.3656)" fill="#F3F1FA"></circle><circle cx="225.646" cy="220.623" r="3.29936" transform="rotate(-26.5718 225.646 220.623)" fill="#F3F1FA"></circle><circle cx="26.0692" cy="144.87" r="3.29936" transform="rotate(-26.5718 26.0692 144.87)" fill="#F3F1FA"></circle><circle cx="101.72" cy="296.127" r="3.29936" transform="rotate(-26.5718 101.72 296.127)" fill="#F3F1FA"></circle><circle cx="155.404" cy="80.182" r="3.29936" transform="rotate(-26.5718 155.404 80.182)" fill="#F3F1FA"></circle><circle cx="231.055" cy="231.44" r="3.29936" transform="rotate(-26.5718 231.055 231.44)" fill="#F3F1FA"></circle><circle cx="31.4826" cy="155.69" r="3.29936" transform="rotate(-26.5718 31.4826 155.69)" fill="#F3F1FA"></circle><circle cx="107.133" cy="306.948" r="3.29936" transform="rotate(-26.5718 107.133 306.948)" fill="#F3F1FA"></circle><circle cx="160.818" cy="91.0023" r="3.29936" transform="rotate(-26.5718 160.818 91.0023)" fill="#F3F1FA"></circle><circle cx="236.468" cy="242.26" r="3.29936" transform="rotate(-26.5718 236.468 242.26)" fill="#F3F1FA"></circle><circle cx="36.8922" cy="166.51" r="3.29936" transform="rotate(-26.5718 36.8922 166.51)" fill="#F3F1FA"></circle><circle cx="112.543" cy="317.764" r="3.29936" transform="rotate(-26.5718 112.543 317.764)" fill="#F3F1FA"></circle><circle cx="166.227" cy="101.823" r="3.29936" transform="rotate(-26.5718 166.227 101.823)" fill="#F3F1FA"></circle><circle cx="241.878" cy="253.08" r="3.29936" transform="rotate(-26.5718 241.878 253.08)" fill="#F3F1FA"></circle><circle cx="42.3083" cy="177.334" r="3.29936" transform="rotate(-26.5718 42.3083 177.334)" fill="#F3F1FA"></circle><circle cx="117.959" cy="328.592" r="3.29936" transform="rotate(-26.5718 117.959 328.592)" fill="#F3F1FA"></circle><circle cx="171.643" cy="112.647" r="3.29936" transform="rotate(-26.5718 171.643 112.647)" fill="#F3F1FA"></circle><circle cx="247.294" cy="263.905" r="3.29936" transform="rotate(-26.5718 247.294 263.905)" fill="#F3F1FA"></circle><circle cx="47.7177" cy="188.151" r="3.29936" transform="rotate(-26.5718 47.7177 188.151)" fill="#F3F1FA"></circle><circle cx="123.369" cy="339.409" r="3.29936" transform="rotate(-26.5718 123.369 339.409)" fill="#F3F1FA"></circle><circle cx="177.053" cy="123.467" r="3.29936" transform="rotate(-26.5718 177.053 123.467)" fill="#F3F1FA"></circle><circle cx="252.704" cy="274.721" r="3.29936" transform="rotate(-26.5718 252.704 274.721)" fill="#F3F1FA"></circle><circle cx="53.1312" cy="198.975" r="3.29936" transform="rotate(-26.5718 53.1312 198.975)" fill="#F3F1FA"></circle><circle cx="128.778" cy="350.229" r="3.29936" transform="rotate(-26.5718 128.778 350.229)" fill="#F3F1FA"></circle><circle cx="182.466" cy="134.287" r="3.29936" transform="rotate(-26.5718 182.466 134.287)" fill="#F3F1FA"></circle><circle cx="258.113" cy="285.541" r="3.29936" transform="rotate(-26.5718 258.113 285.541)" fill="#F3F1FA"></circle><circle cx="58.5407" cy="209.791" r="3.29936" transform="rotate(-26.5718 58.5407 209.791)" fill="#F3F1FA"></circle><circle cx="134.191" cy="361.049" r="3.29936" transform="rotate(-26.5718 134.191 361.049)" fill="#F3F1FA"></circle><circle cx="187.876" cy="145.104" r="3.29936" transform="rotate(-26.5718 187.876 145.104)" fill="#F3F1FA"></circle><circle cx="263.527" cy="296.362" r="3.29936" transform="rotate(-26.5718 263.527 296.362)" fill="#F3F1FA"></circle><circle cx="63.9502" cy="220.608" r="3.29936" transform="rotate(-26.5718 63.9502 220.608)" fill="#F3F1FA"></circle><circle cx="139.601" cy="371.866" r="3.29936" transform="rotate(-26.5718 139.601 371.866)" fill="#F3F1FA"></circle><circle cx="193.285" cy="155.924" r="3.29936" transform="rotate(-26.5718 193.285 155.924)" fill="#F3F1FA"></circle><circle cx="268.936" cy="307.178" r="3.29936" transform="rotate(-26.5718 268.936 307.178)" fill="#F3F1FA"></circle><circle cx="69.3636" cy="231.432" r="3.29936" transform="rotate(-26.5718 69.3636 231.432)" fill="#F3F1FA"></circle><circle cx="145.014" cy="382.686" r="3.29936" transform="rotate(-26.5718 145.014 382.686)" fill="#F3F1FA"></circle><circle cx="198.699" cy="166.745" r="3.29936" transform="rotate(-26.5718 198.699 166.745)" fill="#F3F1FA"></circle><circle cx="274.349" cy="317.998" r="3.29936" transform="rotate(-26.5718 274.349 317.998)" fill="#F3F1FA"></circle><circle cx="74.7732" cy="242.248" r="3.29936" transform="rotate(-26.5718 74.7732 242.248)" fill="#F3F1FA"></circle><circle cx="150.424" cy="393.506" r="3.29936" transform="rotate(-26.5718 150.424 393.506)" fill="#F3F1FA"></circle><circle cx="204.108" cy="177.561" r="3.29936" transform="rotate(-26.5718 204.108 177.561)" fill="#F3F1FA"></circle><circle cx="279.759" cy="328.819" r="3.29936" transform="rotate(-26.5718 279.759 328.819)" fill="#F3F1FA"></circle><circle cx="80.1866" cy="253.069" r="3.29936" transform="rotate(-26.5718 80.1866 253.069)" fill="#F3F1FA"></circle><circle cx="155.837" cy="404.327" r="3.29936" transform="rotate(-26.5718 155.837 404.327)" fill="#F3F1FA"></circle><circle cx="209.522" cy="188.381" r="3.29936" transform="rotate(-26.5718 209.522 188.381)" fill="#F3F1FA"></circle><circle cx="285.172" cy="339.639" r="3.29936" transform="rotate(-26.5718 285.172 339.639)" fill="#F3F1FA"></circle><circle cx="85.5987" cy="263.893" r="3.29936" transform="rotate(-26.5718 85.5987 263.893)" fill="#F3F1FA"></circle><circle cx="161.249" cy="415.147" r="3.29936" transform="rotate(-26.5718 161.249 415.147)" fill="#F3F1FA"></circle><circle cx="214.934" cy="199.205" r="3.29936" transform="rotate(-26.5718 214.934 199.205)" fill="#F3F1FA"></circle><circle cx="290.585" cy="350.463" r="3.29936" transform="rotate(-26.5718 290.585 350.463)" fill="#F3F1FA"></circle><circle cx="26.0678" cy="117.823" r="3.29936" transform="rotate(-26.5718 26.0678 117.823)" fill="#F3F1FA"></circle><circle cx="101.719" cy="269.077" r="3.29936" transform="rotate(-26.5718 101.719 269.077)" fill="#F3F1FA"></circle><circle cx="155.403" cy="53.1352" r="3.29936" transform="rotate(-26.5718 155.403 53.1352)" fill="#F3F1FA"></circle><circle cx="231.054" cy="204.389" r="3.29936" transform="rotate(-26.5718 231.054 204.389)" fill="#F3F1FA"></circle><circle cx="31.4813" cy="128.643" r="3.29936" transform="rotate(-26.5718 31.4813 128.643)" fill="#F3F1FA"></circle><circle cx="107.132" cy="279.897" r="3.29936" transform="rotate(-26.5718 107.132 279.897)" fill="#F3F1FA"></circle><circle cx="160.816" cy="63.9555" r="3.29936" transform="rotate(-26.5718 160.816 63.9555)" fill="#F3F1FA"></circle><circle cx="236.467" cy="215.209" r="3.29936" transform="rotate(-26.5718 236.467 215.209)" fill="#F3F1FA"></circle><circle cx="36.8908" cy="139.459" r="3.29936" transform="rotate(-26.5718 36.8908 139.459)" fill="#F3F1FA"></circle><circle cx="112.542" cy="290.717" r="3.29936" transform="rotate(-26.5718 112.542 290.717)" fill="#F3F1FA"></circle><circle cx="166.226" cy="74.7719" r="3.29936" transform="rotate(-26.5718 166.226 74.7719)" fill="#F3F1FA"></circle><circle cx="241.877" cy="226.03" r="3.29936" transform="rotate(-26.5718 241.877 226.03)" fill="#F3F1FA"></circle><circle cx="42.3003" cy="150.28" r="3.29936" transform="rotate(-26.5718 42.3003 150.28)" fill="#F3F1FA"></circle><circle cx="117.951" cy="301.534" r="3.29936" transform="rotate(-26.5718 117.951 301.534)" fill="#F3F1FA"></circle><circle cx="171.635" cy="85.5922" r="3.29936" transform="rotate(-26.5718 171.635 85.5922)" fill="#F3F1FA"></circle><circle cx="247.286" cy="236.846" r="3.29936" transform="rotate(-26.5718 247.286 236.846)" fill="#F3F1FA"></circle><circle cx="47.7137" cy="161.1" r="3.29936" transform="rotate(-26.5718 47.7137 161.1)" fill="#F3F1FA"></circle><circle cx="123.364" cy="312.354" r="3.29936" transform="rotate(-26.5718 123.364 312.354)" fill="#F3F1FA"></circle><circle cx="177.049" cy="96.4125" r="3.29936" transform="rotate(-26.5718 177.049 96.4125)" fill="#F3F1FA"></circle><circle cx="252.7" cy="247.67" r="3.29936" transform="rotate(-26.5718 252.7 247.67)" fill="#F3F1FA"></circle><circle cx="53.1259" cy="171.92" r="3.29936" transform="rotate(-26.5718 53.1259 171.92)" fill="#F3F1FA"></circle><circle cx="128.777" cy="323.178" r="3.29936" transform="rotate(-26.5718 128.777 323.178)" fill="#F3F1FA"></circle><circle cx="182.461" cy="107.233" r="3.29936" transform="rotate(-26.5718 182.461 107.233)" fill="#F3F1FA"></circle><circle cx="258.112" cy="258.491" r="3.29936" transform="rotate(-26.5718 258.112 258.491)" fill="#F3F1FA"></circle><circle cx="58.5394" cy="182.741" r="3.29936" transform="rotate(-26.5718 58.5394 182.741)" fill="#F3F1FA"></circle><circle cx="134.19" cy="333.998" r="3.29936" transform="rotate(-26.5718 134.19 333.998)" fill="#F3F1FA"></circle><circle cx="187.874" cy="118.057" r="3.29936" transform="rotate(-26.5718 187.874 118.057)" fill="#F3F1FA"></circle><circle cx="263.525" cy="269.311" r="3.29936" transform="rotate(-26.5718 263.525 269.311)" fill="#F3F1FA"></circle><circle cx="63.9488" cy="193.561" r="3.29936" transform="rotate(-26.5718 63.9488 193.561)" fill="#F3F1FA"></circle><circle cx="139.6" cy="344.815" r="3.29936" transform="rotate(-26.5718 139.6 344.815)" fill="#F3F1FA"></circle><circle cx="193.284" cy="128.873" r="3.29936" transform="rotate(-26.5718 193.284 128.873)" fill="#F3F1FA"></circle><circle cx="268.935" cy="280.131" r="3.29936" transform="rotate(-26.5718 268.935 280.131)" fill="#F3F1FA"></circle><circle cx="69.3624" cy="204.381" r="3.29936" transform="rotate(-26.5718 69.3624 204.381)" fill="#F3F1FA"></circle><circle cx="145.013" cy="355.639" r="3.29936" transform="rotate(-26.5718 145.013 355.639)" fill="#F3F1FA"></circle><circle cx="198.697" cy="139.694" r="3.29936" transform="rotate(-26.5718 198.697 139.694)" fill="#F3F1FA"></circle><circle cx="274.348" cy="290.952" r="3.29936" transform="rotate(-26.5718 274.348 290.952)" fill="#F3F1FA"></circle><circle cx="74.7718" cy="215.198" r="3.29936" transform="rotate(-26.5718 74.7718 215.198)" fill="#F3F1FA"></circle><circle cx="150.423" cy="366.455" r="3.29936" transform="rotate(-26.5718 150.423 366.455)" fill="#F3F1FA"></circle><circle cx="204.107" cy="150.514" r="3.29936" transform="rotate(-26.5718 204.107 150.514)" fill="#F3F1FA"></circle><circle cx="279.758" cy="301.768" r="3.29936" transform="rotate(-26.5718 279.758 301.768)" fill="#F3F1FA"></circle><circle cx="80.1813" cy="226.018" r="3.29936" transform="rotate(-26.5718 80.1813 226.018)" fill="#F3F1FA"></circle><circle cx="155.832" cy="377.272" r="3.29936" transform="rotate(-26.5718 155.832 377.272)" fill="#F3F1FA"></circle><circle cx="209.516" cy="161.33" r="3.29936" transform="rotate(-26.5718 209.516 161.33)" fill="#F3F1FA"></circle><circle cx="285.167" cy="312.588" r="3.29936" transform="rotate(-26.5718 285.167 312.588)" fill="#F3F1FA"></circle><circle cx="85.5948" cy="236.838" r="3.29936" transform="rotate(-26.5718 85.5948 236.838)" fill="#F3F1FA"></circle><circle cx="161.246" cy="388.096" r="3.29936" transform="rotate(-26.5718 161.246 388.096)" fill="#F3F1FA"></circle><circle cx="214.93" cy="172.151" r="3.29936" transform="rotate(-26.5718 214.93 172.151)" fill="#F3F1FA"></circle><circle cx="290.581" cy="323.409" r="3.29936" transform="rotate(-26.5718 290.581 323.409)" fill="#F3F1FA"></circle><circle cx="91.0042" cy="247.655" r="3.29936" transform="rotate(-26.5718 91.0042 247.655)" fill="#F3F1FA"></circle><circle cx="166.655" cy="398.913" r="3.29936" transform="rotate(-26.5718 166.655 398.913)" fill="#F3F1FA"></circle><circle cx="220.339" cy="182.971" r="3.29936" transform="rotate(-26.5718 220.339 182.971)" fill="#F3F1FA"></circle><circle cx="295.99" cy="334.225" r="3.29936" transform="rotate(-26.5718 295.99 334.225)" fill="#F3F1FA"></circle><circle cx="96.4204" cy="258.483" r="3.29936" transform="rotate(-26.5718 96.4204 258.483)" fill="#F3F1FA"></circle><circle cx="172.071" cy="409.737" r="3.29936" transform="rotate(-26.5718 172.071 409.737)" fill="#F3F1FA"></circle><circle cx="225.755" cy="193.795" r="3.29936" transform="rotate(-26.5718 225.755 193.795)" fill="#F3F1FA"></circle><circle cx="301.406" cy="345.053" r="3.29936" transform="rotate(-26.5718 301.406 345.053)" fill="#F3F1FA"></circle><circle cx="36.8895" cy="112.409" r="3.29936" transform="rotate(-26.5718 36.8895 112.409)" fill="#F3F1FA"></circle><circle cx="112.54" cy="263.666" r="3.29936" transform="rotate(-26.5718 112.54 263.666)" fill="#F3F1FA"></circle><circle cx="166.225" cy="47.725" r="3.29936" transform="rotate(-26.5718 166.225 47.725)" fill="#F3F1FA"></circle><circle cx="241.875" cy="198.979" r="3.29936" transform="rotate(-26.5718 241.875 198.979)" fill="#F3F1FA"></circle><circle cx="42.2989" cy="123.229" r="3.29936" transform="rotate(-26.5718 42.2989 123.229)" fill="#F3F1FA"></circle><circle cx="117.95" cy="274.487" r="3.29936" transform="rotate(-26.5718 117.95 274.487)" fill="#F3F1FA"></circle><circle cx="171.634" cy="58.5414" r="3.29936" transform="rotate(-26.5718 171.634 58.5414)" fill="#F3F1FA"></circle><circle cx="247.285" cy="209.799" r="3.29936" transform="rotate(-26.5718 247.285 209.799)" fill="#F3F1FA"></circle><circle cx="47.7125" cy="134.049" r="3.29936" transform="rotate(-26.5718 47.7125 134.049)" fill="#F3F1FA"></circle><circle cx="123.363" cy="285.307" r="3.29936" transform="rotate(-26.5718 123.363 285.307)" fill="#F3F1FA"></circle><circle cx="177.047" cy="69.3617" r="3.29936" transform="rotate(-26.5718 177.047 69.3617)" fill="#F3F1FA"></circle><circle cx="252.698" cy="220.62" r="3.29936" transform="rotate(-26.5718 252.698 220.62)" fill="#F3F1FA"></circle><circle cx="53.1219" cy="144.866" r="3.29936" transform="rotate(-26.5718 53.1219 144.866)" fill="#F3F1FA"></circle><circle cx="128.773" cy="296.123" r="3.29936" transform="rotate(-26.5718 128.773 296.123)" fill="#F3F1FA"></circle><circle cx="182.457" cy="80.182" r="3.29936" transform="rotate(-26.5718 182.457 80.182)" fill="#F3F1FA"></circle><circle cx="258.108" cy="231.436" r="3.29936" transform="rotate(-26.5718 258.108 231.436)" fill="#F3F1FA"></circle><circle cx="58.5313" cy="155.686" r="3.29936" transform="rotate(-26.5718 58.5313 155.686)" fill="#F3F1FA"></circle><circle cx="134.182" cy="306.944" r="3.29936" transform="rotate(-26.5718 134.182 306.944)" fill="#F3F1FA"></circle><circle cx="187.866" cy="90.9984" r="3.29936" transform="rotate(-26.5718 187.866 90.9984)" fill="#F3F1FA"></circle><circle cx="263.517" cy="242.256" r="3.29936" transform="rotate(-26.5718 263.517 242.256)" fill="#F3F1FA"></circle><circle cx="63.9475" cy="166.51" r="3.29936" transform="rotate(-26.5718 63.9475 166.51)" fill="#F3F1FA"></circle><circle cx="139.598" cy="317.768" r="3.29936" transform="rotate(-26.5718 139.598 317.768)" fill="#F3F1FA"></circle><circle cx="193.283" cy="101.823" r="3.29936" transform="rotate(-26.5718 193.283 101.823)" fill="#F3F1FA"></circle><circle cx="268.933" cy="253.08" r="3.29936" transform="rotate(-26.5718 268.933 253.08)" fill="#F3F1FA"></circle><circle cx="69.357" cy="177.33" r="3.29936" transform="rotate(-26.5718 69.357 177.33)" fill="#F3F1FA"></circle><circle cx="145.008" cy="328.584" r="3.29936" transform="rotate(-26.5718 145.008 328.584)" fill="#F3F1FA"></circle><circle cx="198.692" cy="112.643" r="3.29936" transform="rotate(-26.5718 198.692 112.643)" fill="#F3F1FA"></circle><circle cx="274.343" cy="263.901" r="3.29936" transform="rotate(-26.5718 274.343 263.901)" fill="#F3F1FA"></circle><circle cx="74.7705" cy="188.151" r="3.29936" transform="rotate(-26.5718 74.7705 188.151)" fill="#F3F1FA"></circle><circle cx="150.421" cy="339.405" r="3.29936" transform="rotate(-26.5718 150.421 339.405)" fill="#F3F1FA"></circle><circle cx="204.106" cy="123.463" r="3.29936" transform="rotate(-26.5718 204.106 123.463)" fill="#F3F1FA"></circle><circle cx="279.756" cy="274.721" r="3.29936" transform="rotate(-26.5718 279.756 274.721)" fill="#F3F1FA"></circle><circle cx="80.1799" cy="198.967" r="3.29936" transform="rotate(-26.5718 80.1799 198.967)" fill="#F3F1FA"></circle><circle cx="155.831" cy="350.225" r="3.29936" transform="rotate(-26.5718 155.831 350.225)" fill="#F3F1FA"></circle><circle cx="209.515" cy="134.28" r="3.29936" transform="rotate(-26.5718 209.515 134.28)" fill="#F3F1FA"></circle><circle cx="285.166" cy="285.538" r="3.29936" transform="rotate(-26.5718 285.166 285.538)" fill="#F3F1FA"></circle><circle cx="85.5935" cy="209.787" r="3.29936" transform="rotate(-26.5718 85.5935 209.787)" fill="#F3F1FA"></circle><circle cx="161.244" cy="361.045" r="3.29936" transform="rotate(-26.5718 161.244 361.045)" fill="#F3F1FA"></circle><circle cx="214.928" cy="145.104" r="3.29936" transform="rotate(-26.5718 214.928 145.104)" fill="#F3F1FA"></circle><circle cx="290.579" cy="296.358" r="3.29936" transform="rotate(-26.5718 290.579 296.358)" fill="#F3F1FA"></circle><circle cx="91.0029" cy="220.608" r="3.29936" transform="rotate(-26.5718 91.0029 220.608)" fill="#F3F1FA"></circle><circle cx="166.654" cy="371.862" r="3.29936" transform="rotate(-26.5718 166.654 371.862)" fill="#F3F1FA"></circle><circle cx="220.338" cy="155.92" r="3.29936" transform="rotate(-26.5718 220.338 155.92)" fill="#F3F1FA"></circle><circle cx="295.989" cy="307.178" r="3.29936" transform="rotate(-26.5718 295.989 307.178)" fill="#F3F1FA"></circle><circle cx="96.4123" cy="231.424" r="3.29936" transform="rotate(-26.5718 96.4123 231.424)" fill="#F3F1FA"></circle><circle cx="172.063" cy="382.682" r="3.29936" transform="rotate(-26.5718 172.063 382.682)" fill="#F3F1FA"></circle><circle cx="225.747" cy="166.737" r="3.29936" transform="rotate(-26.5718 225.747 166.737)" fill="#F3F1FA"></circle><circle cx="301.398" cy="317.995" r="3.29936" transform="rotate(-26.5718 301.398 317.995)" fill="#F3F1FA"></circle><circle cx="101.826" cy="242.245" r="3.29936" transform="rotate(-26.5718 101.826 242.245)" fill="#F3F1FA"></circle><circle cx="177.477" cy="393.502" r="3.29936" transform="rotate(-26.5718 177.477 393.502)" fill="#F3F1FA"></circle><circle cx="231.161" cy="177.561" r="3.29936" transform="rotate(-26.5718 231.161 177.561)" fill="#F3F1FA"></circle><circle cx="306.812" cy="328.815" r="3.29936" transform="rotate(-26.5718 306.812 328.815)" fill="#F3F1FA"></circle><circle cx="107.238" cy="253.069" r="3.29936" transform="rotate(-26.5718 107.238 253.069)" fill="#F3F1FA"></circle><circle cx="182.889" cy="404.327" r="3.29936" transform="rotate(-26.5718 182.889 404.327)" fill="#F3F1FA"></circle><circle cx="236.573" cy="188.381" r="3.29936" transform="rotate(-26.5718 236.573 188.381)" fill="#F3F1FA"></circle><circle cx="312.224" cy="339.639" r="3.29936" transform="rotate(-26.5718 312.224 339.639)" fill="#F3F1FA"></circle><circle cx="47.707" cy="106.998" r="3.29936" transform="rotate(-26.5718 47.707 106.998)" fill="#F3F1FA"></circle><circle cx="123.358" cy="258.252" r="3.29936" transform="rotate(-26.5718 123.358 258.252)" fill="#F3F1FA"></circle><circle cx="177.042" cy="42.3109" r="3.29936" transform="rotate(-26.5718 177.042 42.3109)" fill="#F3F1FA"></circle><circle cx="252.693" cy="193.569" r="3.29936" transform="rotate(-26.5718 252.693 193.569)" fill="#F3F1FA"></circle><circle cx="53.1205" cy="117.819" r="3.29936" transform="rotate(-26.5718 53.1205 117.819)" fill="#F3F1FA"></circle><circle cx="128.771" cy="269.077" r="3.29936" transform="rotate(-26.5718 128.771 269.077)" fill="#F3F1FA"></circle><circle cx="182.456" cy="53.1312" r="3.29936" transform="rotate(-26.5718 182.456 53.1312)" fill="#F3F1FA"></circle><circle cx="258.106" cy="204.389" r="3.29936" transform="rotate(-26.5718 258.106 204.389)" fill="#F3F1FA"></circle><circle cx="58.5299" cy="128.635" r="3.29936" transform="rotate(-26.5718 58.5299 128.635)" fill="#F3F1FA"></circle><circle cx="134.181" cy="279.893" r="3.29936" transform="rotate(-26.5718 134.181 279.893)" fill="#F3F1FA"></circle><circle cx="187.865" cy="63.9477" r="3.29936" transform="rotate(-26.5718 187.865 63.9477)" fill="#F3F1FA"></circle><circle cx="263.516" cy="215.205" r="3.29936" transform="rotate(-26.5718 263.516 215.205)" fill="#F3F1FA"></circle><circle cx="63.9433" cy="139.455" r="3.29936" transform="rotate(-26.5718 63.9433 139.455)" fill="#F3F1FA"></circle><circle cx="139.594" cy="290.713" r="3.29936" transform="rotate(-26.5718 139.594 290.713)" fill="#F3F1FA"></circle><circle cx="193.279" cy="74.7719" r="3.29936" transform="rotate(-26.5718 193.279 74.7719)" fill="#F3F1FA"></circle><circle cx="268.929" cy="226.026" r="3.29936" transform="rotate(-26.5718 268.929 226.026)" fill="#F3F1FA"></circle><circle cx="69.3529" cy="150.276" r="3.29936" transform="rotate(-26.5718 69.3529 150.276)" fill="#F3F1FA"></circle><circle cx="145.004" cy="301.534" r="3.29936" transform="rotate(-26.5718 145.004 301.534)" fill="#F3F1FA"></circle><circle cx="198.688" cy="85.5883" r="3.29936" transform="rotate(-26.5718 198.688 85.5883)" fill="#F3F1FA"></circle><circle cx="274.339" cy="236.846" r="3.29936" transform="rotate(-26.5718 274.339 236.846)" fill="#F3F1FA"></circle><circle cx="74.765" cy="161.1" r="3.29936" transform="rotate(-26.5718 74.765 161.1)" fill="#F3F1FA"></circle><circle cx="150.416" cy="312.354" r="3.29936" transform="rotate(-26.5718 150.416 312.354)" fill="#F3F1FA"></circle><circle cx="204.1" cy="96.4125" r="3.29936" transform="rotate(-26.5718 204.1 96.4125)" fill="#F3F1FA"></circle><circle cx="279.751" cy="247.666" r="3.29936" transform="rotate(-26.5718 279.751 247.666)" fill="#F3F1FA"></circle><circle cx="80.1784" cy="171.92" r="3.29936" transform="rotate(-26.5718 80.1784 171.92)" fill="#F3F1FA"></circle><circle cx="155.829" cy="323.174" r="3.29936" transform="rotate(-26.5718 155.829 323.174)" fill="#F3F1FA"></circle><circle cx="209.514" cy="107.233" r="3.29936" transform="rotate(-26.5718 209.514 107.233)" fill="#F3F1FA"></circle><circle cx="285.164" cy="258.487" r="3.29936" transform="rotate(-26.5718 285.164 258.487)" fill="#F3F1FA"></circle><circle cx="85.588" cy="182.737" r="3.29936" transform="rotate(-26.5718 85.588 182.737)" fill="#F3F1FA"></circle><circle cx="161.239" cy="333.995" r="3.29936" transform="rotate(-26.5718 161.239 333.995)" fill="#F3F1FA"></circle><circle cx="214.923" cy="118.049" r="3.29936" transform="rotate(-26.5718 214.923 118.049)" fill="#F3F1FA"></circle><circle cx="290.574" cy="269.307" r="3.29936" transform="rotate(-26.5718 290.574 269.307)" fill="#F3F1FA"></circle><circle cx="91.0014" cy="193.557" r="3.29936" transform="rotate(-26.5718 91.0014 193.557)" fill="#F3F1FA"></circle><circle cx="166.652" cy="344.815" r="3.29936" transform="rotate(-26.5718 166.652 344.815)" fill="#F3F1FA"></circle><circle cx="220.337" cy="128.87" r="3.29936" transform="rotate(-26.5718 220.337 128.87)" fill="#F3F1FA"></circle><circle cx="295.987" cy="280.127" r="3.29936" transform="rotate(-26.5718 295.987 280.127)" fill="#F3F1FA"></circle><circle cx="96.4109" cy="204.377" r="3.29936" transform="rotate(-26.5718 96.4109 204.377)" fill="#F3F1FA"></circle><circle cx="172.062" cy="355.631" r="3.29936" transform="rotate(-26.5718 172.062 355.631)" fill="#F3F1FA"></circle><circle cx="225.746" cy="139.69" r="3.29936" transform="rotate(-26.5718 225.746 139.69)" fill="#F3F1FA"></circle><circle cx="301.397" cy="290.944" r="3.29936" transform="rotate(-26.5718 301.397 290.944)" fill="#F3F1FA"></circle><circle cx="101.824" cy="215.198" r="3.29936" transform="rotate(-26.5718 101.824 215.198)" fill="#F3F1FA"></circle><circle cx="177.475" cy="366.452" r="3.29936" transform="rotate(-26.5718 177.475 366.452)" fill="#F3F1FA"></circle><circle cx="231.16" cy="150.51" r="3.29936" transform="rotate(-26.5718 231.16 150.51)" fill="#F3F1FA"></circle><circle cx="306.81" cy="301.768" r="3.29936" transform="rotate(-26.5718 306.81 301.768)" fill="#F3F1FA"></circle><circle cx="107.234" cy="226.014" r="3.29936" transform="rotate(-26.5718 107.234 226.014)" fill="#F3F1FA"></circle><circle cx="182.885" cy="377.272" r="3.29936" transform="rotate(-26.5718 182.885 377.272)" fill="#F3F1FA"></circle><circle cx="236.569" cy="161.327" r="3.29936" transform="rotate(-26.5718 236.569 161.327)" fill="#F3F1FA"></circle><circle cx="312.22" cy="312.584" r="3.29936" transform="rotate(-26.5718 312.22 312.584)" fill="#F3F1FA"></circle><circle cx="112.643" cy="236.834" r="3.29936" transform="rotate(-26.5718 112.643 236.834)" fill="#F3F1FA"></circle><circle cx="188.294" cy="388.088" r="3.29936" transform="rotate(-26.5718 188.294 388.088)" fill="#F3F1FA"></circle><circle cx="241.978" cy="172.147" r="3.29936" transform="rotate(-26.5718 241.978 172.147)" fill="#F3F1FA"></circle><circle cx="317.629" cy="323.401" r="3.29936" transform="rotate(-26.5718 317.629 323.401)" fill="#F3F1FA"></circle><circle cx="118.059" cy="247.659" r="3.29936" transform="rotate(-26.5718 118.059 247.659)" fill="#F3F1FA"></circle><circle cx="193.71" cy="398.916" r="3.29936" transform="rotate(-26.5718 193.71 398.916)" fill="#F3F1FA"></circle><circle cx="247.395" cy="182.971" r="3.29936" transform="rotate(-26.5718 247.395 182.971)" fill="#F3F1FA"></circle><circle cx="323.045" cy="334.229" r="3.29936" transform="rotate(-26.5718 323.045 334.229)" fill="#F3F1FA"></circle><circle cx="58.5285" cy="101.588" r="3.29936" transform="rotate(-26.5718 58.5285 101.588)" fill="#F3F1FA"></circle><circle cx="134.179" cy="252.842" r="3.29936" transform="rotate(-26.5718 134.179 252.842)" fill="#F3F1FA"></circle><circle cx="187.864" cy="36.9008" r="3.29936" transform="rotate(-26.5718 187.864 36.9008)" fill="#F3F1FA"></circle><circle cx="263.514" cy="188.159" r="3.29936" transform="rotate(-26.5718 263.514 188.159)" fill="#F3F1FA"></circle><circle cx="63.9381" cy="112.405" r="3.29936" transform="rotate(-26.5718 63.9381 112.405)" fill="#F3F1FA"></circle><circle cx="139.589" cy="263.663" r="3.29936" transform="rotate(-26.5718 139.589 263.663)" fill="#F3F1FA"></circle><circle cx="193.273" cy="47.7172" r="3.29936" transform="rotate(-26.5718 193.273 47.7172)" fill="#F3F1FA"></circle><circle cx="268.924" cy="198.975" r="3.29936" transform="rotate(-26.5718 268.924 198.975)" fill="#F3F1FA"></circle><circle cx="69.3515" cy="123.225" r="3.29936" transform="rotate(-26.5718 69.3515 123.225)" fill="#F3F1FA"></circle><circle cx="145.002" cy="274.483" r="3.29936" transform="rotate(-26.5718 145.002 274.483)" fill="#F3F1FA"></circle><circle cx="198.687" cy="58.5375" r="3.29936" transform="rotate(-26.5718 198.687 58.5375)" fill="#F3F1FA"></circle><circle cx="274.337" cy="209.795" r="3.29936" transform="rotate(-26.5718 274.337 209.795)" fill="#F3F1FA"></circle><circle cx="74.761" cy="134.045" r="3.29936" transform="rotate(-26.5718 74.761 134.045)" fill="#F3F1FA"></circle><circle cx="150.412" cy="285.299" r="3.29936" transform="rotate(-26.5718 150.412 285.299)" fill="#F3F1FA"></circle><circle cx="204.096" cy="69.3578" r="3.29936" transform="rotate(-26.5718 204.096 69.3578)" fill="#F3F1FA"></circle><circle cx="279.747" cy="220.616" r="3.29936" transform="rotate(-26.5718 279.747 220.616)" fill="#F3F1FA"></circle><circle cx="80.1744" cy="144.866" r="3.29936" transform="rotate(-26.5718 80.1744 144.866)" fill="#F3F1FA"></circle><circle cx="155.825" cy="296.12" r="3.29936" transform="rotate(-26.5718 155.825 296.12)" fill="#F3F1FA"></circle><circle cx="209.51" cy="80.1781" r="3.29936" transform="rotate(-26.5718 209.51 80.1781)" fill="#F3F1FA"></circle><circle cx="285.16" cy="231.436" r="3.29936" transform="rotate(-26.5718 285.16 231.436)" fill="#F3F1FA"></circle><circle cx="85.5866" cy="155.686" r="3.29936" transform="rotate(-26.5718 85.5866 155.686)" fill="#F3F1FA"></circle><circle cx="161.237" cy="306.944" r="3.29936" transform="rotate(-26.5718 161.237 306.944)" fill="#F3F1FA"></circle><circle cx="214.922" cy="91.0023" r="3.29936" transform="rotate(-26.5718 214.922 91.0023)" fill="#F3F1FA"></circle><circle cx="290.573" cy="242.256" r="3.29936" transform="rotate(-26.5718 290.573 242.256)" fill="#F3F1FA"></circle><circle cx="90.9961" cy="166.506" r="3.29936" transform="rotate(-26.5718 90.9961 166.506)" fill="#F3F1FA"></circle><circle cx="166.647" cy="317.764" r="3.29936" transform="rotate(-26.5718 166.647 317.764)" fill="#F3F1FA"></circle><circle cx="220.331" cy="101.819" r="3.29936" transform="rotate(-26.5718 220.331 101.819)" fill="#F3F1FA"></circle><circle cx="295.982" cy="253.077" r="3.29936" transform="rotate(-26.5718 295.982 253.077)" fill="#F3F1FA"></circle><circle cx="96.4095" cy="177.327" r="3.29936" transform="rotate(-26.5718 96.4095 177.327)" fill="#F3F1FA"></circle><circle cx="172.06" cy="328.584" r="3.29936" transform="rotate(-26.5718 172.06 328.584)" fill="#F3F1FA"></circle><circle cx="225.745" cy="112.639" r="3.29936" transform="rotate(-26.5718 225.745 112.639)" fill="#F3F1FA"></circle><circle cx="301.396" cy="263.897" r="3.29936" transform="rotate(-26.5718 301.396 263.897)" fill="#F3F1FA"></circle><circle cx="101.819" cy="188.143" r="3.29936" transform="rotate(-26.5718 101.819 188.143)" fill="#F3F1FA"></circle><circle cx="177.47" cy="339.401" r="3.29936" transform="rotate(-26.5718 177.47 339.401)" fill="#F3F1FA"></circle><circle cx="231.154" cy="123.459" r="3.29936" transform="rotate(-26.5718 231.154 123.459)" fill="#F3F1FA"></circle><circle cx="306.805" cy="274.713" r="3.29936" transform="rotate(-26.5718 306.805 274.713)" fill="#F3F1FA"></circle><circle cx="107.233" cy="198.967" r="3.29936" transform="rotate(-26.5718 107.233 198.967)" fill="#F3F1FA"></circle><circle cx="182.883" cy="350.221" r="3.29936" transform="rotate(-26.5718 182.883 350.221)" fill="#F3F1FA"></circle><circle cx="236.568" cy="134.28" r="3.29936" transform="rotate(-26.5718 236.568 134.28)" fill="#F3F1FA"></circle><circle cx="312.218" cy="285.534" r="3.29936" transform="rotate(-26.5718 312.218 285.534)" fill="#F3F1FA"></circle><circle cx="112.642" cy="209.784" r="3.29936" transform="rotate(-26.5718 112.642 209.784)" fill="#F3F1FA"></circle><circle cx="188.293" cy="361.041" r="3.29936" transform="rotate(-26.5718 188.293 361.041)" fill="#F3F1FA"></circle><circle cx="241.977" cy="145.096" r="3.29936" transform="rotate(-26.5718 241.977 145.096)" fill="#F3F1FA"></circle><circle cx="317.628" cy="296.354" r="3.29936" transform="rotate(-26.5718 317.628 296.354)" fill="#F3F1FA"></circle><circle cx="118.055" cy="220.604" r="3.29936" transform="rotate(-26.5718 118.055 220.604)" fill="#F3F1FA"></circle><circle cx="193.706" cy="371.862" r="3.29936" transform="rotate(-26.5718 193.706 371.862)" fill="#F3F1FA"></circle><circle cx="247.391" cy="155.916" r="3.29936" transform="rotate(-26.5718 247.391 155.916)" fill="#F3F1FA"></circle><circle cx="323.041" cy="307.174" r="3.29936" transform="rotate(-26.5718 323.041 307.174)" fill="#F3F1FA"></circle><circle cx="123.465" cy="231.424" r="3.29936" transform="rotate(-26.5718 123.465 231.424)" fill="#F3F1FA"></circle><circle cx="199.116" cy="382.678" r="3.29936" transform="rotate(-26.5718 199.116 382.678)" fill="#F3F1FA"></circle><circle cx="252.8" cy="166.737" r="3.29936" transform="rotate(-26.5718 252.8 166.737)" fill="#F3F1FA"></circle><circle cx="328.451" cy="317.991" r="3.29936" transform="rotate(-26.5718 328.451 317.991)" fill="#F3F1FA"></circle><circle cx="128.877" cy="242.245" r="3.29936" transform="rotate(-26.5718 128.877 242.245)" fill="#F3F1FA"></circle><circle cx="204.528" cy="393.502" r="3.29936" transform="rotate(-26.5718 204.528 393.502)" fill="#F3F1FA"></circle><circle cx="258.212" cy="177.557" r="3.29936" transform="rotate(-26.5718 258.212 177.557)" fill="#F3F1FA"></circle><circle cx="333.863" cy="328.815" r="3.29936" transform="rotate(-26.5718 333.863 328.815)" fill="#F3F1FA"></circle><circle cx="69.3462" cy="96.1742" r="3.29936" transform="rotate(-26.5718 69.3462 96.1742)" fill="#F3F1FA"></circle><circle cx="144.997" cy="247.432" r="3.29936" transform="rotate(-26.5718 144.997 247.432)" fill="#F3F1FA"></circle><circle cx="198.681" cy="31.4867" r="3.29936" transform="rotate(-26.5718 198.681 31.4867)" fill="#F3F1FA"></circle><circle cx="274.332" cy="182.745" r="3.29936" transform="rotate(-26.5718 274.332 182.745)" fill="#F3F1FA"></circle><circle cx="74.7596" cy="106.995" r="3.29936" transform="rotate(-26.5718 74.7596 106.995)" fill="#F3F1FA"></circle><circle cx="150.41" cy="258.252" r="3.29936" transform="rotate(-26.5718 150.41 258.252)" fill="#F3F1FA"></circle><circle cx="204.095" cy="42.307" r="3.29936" transform="rotate(-26.5718 204.095 42.307)" fill="#F3F1FA"></circle><circle cx="279.746" cy="193.565" r="3.29936" transform="rotate(-26.5718 279.746 193.565)" fill="#F3F1FA"></circle><circle cx="80.1692" cy="117.815" r="3.29936" transform="rotate(-26.5718 80.1692 117.815)" fill="#F3F1FA"></circle><circle cx="155.82" cy="269.069" r="3.29936" transform="rotate(-26.5718 155.82 269.069)" fill="#F3F1FA"></circle><circle cx="209.504" cy="53.1273" r="3.29936" transform="rotate(-26.5718 209.504 53.1273)" fill="#F3F1FA"></circle><circle cx="285.155" cy="204.381" r="3.29936" transform="rotate(-26.5718 285.155 204.381)" fill="#F3F1FA"></circle><circle cx="85.5826" cy="128.635" r="3.29936" transform="rotate(-26.5718 85.5826 128.635)" fill="#F3F1FA"></circle><circle cx="161.233" cy="279.889" r="3.29936" transform="rotate(-26.5718 161.233 279.889)" fill="#F3F1FA"></circle><circle cx="214.918" cy="63.9477" r="3.29936" transform="rotate(-26.5718 214.918 63.9477)" fill="#F3F1FA"></circle><circle cx="290.569" cy="215.202" r="3.29936" transform="rotate(-26.5718 290.569 215.202)" fill="#F3F1FA"></circle><circle cx="90.992" cy="139.452" r="3.29936" transform="rotate(-26.5718 90.992 139.452)" fill="#F3F1FA"></circle><circle cx="166.643" cy="290.709" r="3.29936" transform="rotate(-26.5718 166.643 290.709)" fill="#F3F1FA"></circle><circle cx="220.327" cy="74.7641" r="3.29936" transform="rotate(-26.5718 220.327 74.7641)" fill="#F3F1FA"></circle><circle cx="295.978" cy="226.022" r="3.29936" transform="rotate(-26.5718 295.978 226.022)" fill="#F3F1FA"></circle><circle cx="96.4043" cy="150.276" r="3.29936" transform="rotate(-26.5718 96.4043 150.276)" fill="#F3F1FA"></circle><circle cx="172.055" cy="301.53" r="3.29936" transform="rotate(-26.5718 172.055 301.53)" fill="#F3F1FA"></circle><circle cx="225.739" cy="85.5883" r="3.29936" transform="rotate(-26.5718 225.739 85.5883)" fill="#F3F1FA"></circle><circle cx="301.39" cy="236.846" r="3.29936" transform="rotate(-26.5718 301.39 236.846)" fill="#F3F1FA"></circle><circle cx="101.818" cy="161.096" r="3.29936" transform="rotate(-26.5718 101.818 161.096)" fill="#F3F1FA"></circle><circle cx="177.468" cy="312.35" r="3.29936" transform="rotate(-26.5718 177.468 312.35)" fill="#F3F1FA"></circle><circle cx="231.153" cy="96.4086" r="3.29936" transform="rotate(-26.5718 231.153 96.4086)" fill="#F3F1FA"></circle><circle cx="306.804" cy="247.666" r="3.29936" transform="rotate(-26.5718 306.804 247.666)" fill="#F3F1FA"></circle><circle cx="107.227" cy="171.912" r="3.29936" transform="rotate(-26.5718 107.227 171.912)" fill="#F3F1FA"></circle><circle cx="182.878" cy="323.17" r="3.29936" transform="rotate(-26.5718 182.878 323.17)" fill="#F3F1FA"></circle><circle cx="236.562" cy="107.225" r="3.29936" transform="rotate(-26.5718 236.562 107.225)" fill="#F3F1FA"></circle><circle cx="312.213" cy="258.483" r="3.29936" transform="rotate(-26.5718 312.213 258.483)" fill="#F3F1FA"></circle><circle cx="112.641" cy="182.733" r="3.29936" transform="rotate(-26.5718 112.641 182.733)" fill="#F3F1FA"></circle><circle cx="188.291" cy="333.991" r="3.29936" transform="rotate(-26.5718 188.291 333.991)" fill="#F3F1FA"></circle><circle cx="241.976" cy="118.049" r="3.29936" transform="rotate(-26.5718 241.976 118.049)" fill="#F3F1FA"></circle><circle cx="317.627" cy="269.303" r="3.29936" transform="rotate(-26.5718 317.627 269.303)" fill="#F3F1FA"></circle><circle cx="118.05" cy="193.553" r="3.29936" transform="rotate(-26.5718 118.05 193.553)" fill="#F3F1FA"></circle><circle cx="193.701" cy="344.807" r="3.29936" transform="rotate(-26.5718 193.701 344.807)" fill="#F3F1FA"></circle><circle cx="247.385" cy="128.866" r="3.29936" transform="rotate(-26.5718 247.385 128.866)" fill="#F3F1FA"></circle><circle cx="323.036" cy="280.123" r="3.29936" transform="rotate(-26.5718 323.036 280.123)" fill="#F3F1FA"></circle><circle cx="123.464" cy="204.373" r="3.29936" transform="rotate(-26.5718 123.464 204.373)" fill="#F3F1FA"></circle><circle cx="199.114" cy="355.631" r="3.29936" transform="rotate(-26.5718 199.114 355.631)" fill="#F3F1FA"></circle><circle cx="252.799" cy="139.686" r="3.29936" transform="rotate(-26.5718 252.799 139.686)" fill="#F3F1FA"></circle><circle cx="328.45" cy="290.944" r="3.29936" transform="rotate(-26.5718 328.45 290.944)" fill="#F3F1FA"></circle><circle cx="128.873" cy="215.19" r="3.29936" transform="rotate(-26.5718 128.873 215.19)" fill="#F3F1FA"></circle><circle cx="204.524" cy="366.448" r="3.29936" transform="rotate(-26.5718 204.524 366.448)" fill="#F3F1FA"></circle><circle cx="258.208" cy="150.506" r="3.29936" transform="rotate(-26.5718 258.208 150.506)" fill="#F3F1FA"></circle><circle cx="333.859" cy="301.76" r="3.29936" transform="rotate(-26.5718 333.859 301.76)" fill="#F3F1FA"></circle><circle cx="134.287" cy="226.014" r="3.29936" transform="rotate(-26.5718 134.287 226.014)" fill="#F3F1FA"></circle><circle cx="209.937" cy="377.268" r="3.29936" transform="rotate(-26.5718 209.937 377.268)" fill="#F3F1FA"></circle><circle cx="263.622" cy="161.327" r="3.29936" transform="rotate(-26.5718 263.622 161.327)" fill="#F3F1FA"></circle><circle cx="339.273" cy="312.58" r="3.29936" transform="rotate(-26.5718 339.273 312.58)" fill="#F3F1FA"></circle><circle cx="139.699" cy="236.834" r="3.29936" transform="rotate(-26.5718 139.699 236.834)" fill="#F3F1FA"></circle><circle cx="215.349" cy="388.092" r="3.29936" transform="rotate(-26.5718 215.349 388.092)" fill="#F3F1FA"></circle><circle cx="269.034" cy="172.147" r="3.29936" transform="rotate(-26.5718 269.034 172.147)" fill="#F3F1FA"></circle><circle cx="344.685" cy="323.405" r="3.29936" transform="rotate(-26.5718 344.685 323.405)" fill="#F3F1FA"></circle><circle cx="80.1678" cy="90.7641" r="3.29936" transform="rotate(-26.5718 80.1678 90.7641)" fill="#F3F1FA"></circle><circle cx="155.819" cy="242.022" r="3.29936" transform="rotate(-26.5718 155.819 242.022)" fill="#F3F1FA"></circle><circle cx="209.503" cy="26.0766" r="3.29936" transform="rotate(-26.5718 209.503 26.0766)" fill="#F3F1FA"></circle><circle cx="285.154" cy="177.334" r="3.29936" transform="rotate(-26.5718 285.154 177.334)" fill="#F3F1FA"></circle><circle cx="85.5772" cy="101.58" r="3.29936" transform="rotate(-26.5718 85.5772 101.58)" fill="#F3F1FA"></circle><circle cx="161.228" cy="252.838" r="3.29936" transform="rotate(-26.5718 161.228 252.838)" fill="#F3F1FA"></circle><circle cx="214.912" cy="36.8969" r="3.29936" transform="rotate(-26.5718 214.912 36.8969)" fill="#F3F1FA"></circle><circle cx="290.563" cy="188.151" r="3.29936" transform="rotate(-26.5718 290.563 188.151)" fill="#F3F1FA"></circle><circle cx="90.9907" cy="112.401" r="3.29936" transform="rotate(-26.5718 90.9907 112.401)" fill="#F3F1FA"></circle><circle cx="166.641" cy="263.659" r="3.29936" transform="rotate(-26.5718 166.641 263.659)" fill="#F3F1FA"></circle><circle cx="220.326" cy="47.7172" r="3.29936" transform="rotate(-26.5718 220.326 47.7172)" fill="#F3F1FA"></circle><circle cx="295.977" cy="198.971" r="3.29936" transform="rotate(-26.5718 295.977 198.971)" fill="#F3F1FA"></circle><circle cx="96.4002" cy="123.221" r="3.29936" transform="rotate(-26.5718 96.4002 123.221)" fill="#F3F1FA"></circle><circle cx="172.051" cy="274.479" r="3.29936" transform="rotate(-26.5718 172.051 274.479)" fill="#F3F1FA"></circle><circle cx="225.735" cy="58.5336" r="3.29936" transform="rotate(-26.5718 225.735 58.5336)" fill="#F3F1FA"></circle><circle cx="301.386" cy="209.791" r="3.29936" transform="rotate(-26.5718 301.386 209.791)" fill="#F3F1FA"></circle><circle cx="101.814" cy="134.041" r="3.29936" transform="rotate(-26.5718 101.814 134.041)" fill="#F3F1FA"></circle><circle cx="177.464" cy="285.299" r="3.29936" transform="rotate(-26.5718 177.464 285.299)" fill="#F3F1FA"></circle><circle cx="231.149" cy="69.3539" r="3.29936" transform="rotate(-26.5718 231.149 69.3539)" fill="#F3F1FA"></circle><circle cx="306.8" cy="220.612" r="3.29936" transform="rotate(-26.5718 306.8 220.612)" fill="#F3F1FA"></circle><circle cx="107.226" cy="144.866" r="3.29936" transform="rotate(-26.5718 107.226 144.866)" fill="#F3F1FA"></circle><circle cx="182.877" cy="296.12" r="3.29936" transform="rotate(-26.5718 182.877 296.12)" fill="#F3F1FA"></circle><circle cx="236.561" cy="80.1781" r="3.29936" transform="rotate(-26.5718 236.561 80.1781)" fill="#F3F1FA"></circle><circle cx="312.212" cy="231.436" r="3.29936" transform="rotate(-26.5718 312.212 231.436)" fill="#F3F1FA"></circle><circle cx="112.635" cy="155.682" r="3.29936" transform="rotate(-26.5718 112.635 155.682)" fill="#F3F1FA"></circle><circle cx="188.286" cy="306.94" r="3.29936" transform="rotate(-26.5718 188.286 306.94)" fill="#F3F1FA"></circle><circle cx="241.97" cy="90.9945" r="3.29936" transform="rotate(-26.5718 241.97 90.9945)" fill="#F3F1FA"></circle><circle cx="317.621" cy="242.252" r="3.29936" transform="rotate(-26.5718 317.621 242.252)" fill="#F3F1FA"></circle><circle cx="118.049" cy="166.502" r="3.29936" transform="rotate(-26.5718 118.049 166.502)" fill="#F3F1FA"></circle><circle cx="193.7" cy="317.76" r="3.29936" transform="rotate(-26.5718 193.7 317.76)" fill="#F3F1FA"></circle><circle cx="247.384" cy="101.815" r="3.29936" transform="rotate(-26.5718 247.384 101.815)" fill="#F3F1FA"></circle><circle cx="323.035" cy="253.073" r="3.29936" transform="rotate(-26.5718 323.035 253.073)" fill="#F3F1FA"></circle><circle cx="123.458" cy="177.323" r="3.29936" transform="rotate(-26.5718 123.458 177.323)" fill="#F3F1FA"></circle><circle cx="199.109" cy="328.577" r="3.29936" transform="rotate(-26.5718 199.109 328.577)" fill="#F3F1FA"></circle><circle cx="252.793" cy="112.635" r="3.29936" transform="rotate(-26.5718 252.793 112.635)" fill="#F3F1FA"></circle><circle cx="328.444" cy="263.893" r="3.29936" transform="rotate(-26.5718 328.444 263.893)" fill="#F3F1FA"></circle><circle cx="128.872" cy="188.143" r="3.29936" transform="rotate(-26.5718 128.872 188.143)" fill="#F3F1FA"></circle><circle cx="204.523" cy="339.397" r="3.29936" transform="rotate(-26.5718 204.523 339.397)" fill="#F3F1FA"></circle><circle cx="258.207" cy="123.455" r="3.29936" transform="rotate(-26.5718 258.207 123.455)" fill="#F3F1FA"></circle><circle cx="333.858" cy="274.713" r="3.29936" transform="rotate(-26.5718 333.858 274.713)" fill="#F3F1FA"></circle><circle cx="134.281" cy="198.959" r="3.29936" transform="rotate(-26.5718 134.281 198.959)" fill="#F3F1FA"></circle><circle cx="209.932" cy="350.217" r="3.29936" transform="rotate(-26.5718 209.932 350.217)" fill="#F3F1FA"></circle><circle cx="263.616" cy="134.272" r="3.29936" transform="rotate(-26.5718 263.616 134.272)" fill="#F3F1FA"></circle><circle cx="339.267" cy="285.53" r="3.29936" transform="rotate(-26.5718 339.267 285.53)" fill="#F3F1FA"></circle><circle cx="139.695" cy="209.78" r="3.29936" transform="rotate(-26.5718 139.695 209.78)" fill="#F3F1FA"></circle><circle cx="215.345" cy="361.038" r="3.29936" transform="rotate(-26.5718 215.345 361.038)" fill="#F3F1FA"></circle><circle cx="269.03" cy="145.096" r="3.29936" transform="rotate(-26.5718 269.03 145.096)" fill="#F3F1FA"></circle><circle cx="344.681" cy="296.35" r="3.29936" transform="rotate(-26.5718 344.681 296.35)" fill="#F3F1FA"></circle><circle cx="145.104" cy="220.6" r="3.29936" transform="rotate(-26.5718 145.104 220.6)" fill="#F3F1FA"></circle><circle cx="220.755" cy="371.854" r="3.29936" transform="rotate(-26.5718 220.755 371.854)" fill="#F3F1FA"></circle><circle cx="274.439" cy="155.912" r="3.29936" transform="rotate(-26.5718 274.439 155.912)" fill="#F3F1FA"></circle><circle cx="350.09" cy="307.17" r="3.29936" transform="rotate(-26.5718 350.09 307.17)" fill="#F3F1FA"></circle><circle cx="150.516" cy="231.42" r="3.29936" transform="rotate(-26.5718 150.516 231.42)" fill="#F3F1FA"></circle><circle cx="226.167" cy="382.678" r="3.29936" transform="rotate(-26.5718 226.167 382.678)" fill="#F3F1FA"></circle><circle cx="279.851" cy="166.737" r="3.29936" transform="rotate(-26.5718 279.851 166.737)" fill="#F3F1FA"></circle><circle cx="355.502" cy="317.991" r="3.29936" transform="rotate(-26.5718 355.502 317.991)" fill="#F3F1FA"></circle><circle cx="90.9853" cy="85.35" r="3.29936" transform="rotate(-26.5718 90.9853 85.35)" fill="#F3F1FA"></circle><circle cx="166.636" cy="236.608" r="3.29936" transform="rotate(-26.5718 166.636 236.608)" fill="#F3F1FA"></circle><circle cx="220.32" cy="20.6625" r="3.29936" transform="rotate(-26.5718 220.32 20.6625)" fill="#F3F1FA"></circle><circle cx="295.971" cy="171.92" r="3.29936" transform="rotate(-26.5718 295.971 171.92)" fill="#F3F1FA"></circle><circle cx="96.3988" cy="96.1703" r="3.29936" transform="rotate(-26.5718 96.3988 96.1703)" fill="#F3F1FA"></circle><circle cx="172.05" cy="247.428" r="3.29936" transform="rotate(-26.5718 172.05 247.428)" fill="#F3F1FA"></circle><circle cx="225.734" cy="31.4867" r="3.29936" transform="rotate(-26.5718 225.734 31.4867)" fill="#F3F1FA"></circle><circle cx="301.384" cy="182.741" r="3.29936" transform="rotate(-26.5718 301.384 182.741)" fill="#F3F1FA"></circle><circle cx="101.808" cy="106.991" r="3.29936" transform="rotate(-26.5718 101.808 106.991)" fill="#F3F1FA"></circle><circle cx="177.459" cy="258.245" r="3.29936" transform="rotate(-26.5718 177.459 258.245)" fill="#F3F1FA"></circle><circle cx="231.143" cy="42.3031" r="3.29936" transform="rotate(-26.5718 231.143 42.3031)" fill="#F3F1FA"></circle><circle cx="306.794" cy="193.561" r="3.29936" transform="rotate(-26.5718 306.794 193.561)" fill="#F3F1FA"></circle><circle cx="107.222" cy="117.811" r="3.29936" transform="rotate(-26.5718 107.222 117.811)" fill="#F3F1FA"></circle><circle cx="182.872" cy="269.069" r="3.29936" transform="rotate(-26.5718 182.872 269.069)" fill="#F3F1FA"></circle><circle cx="236.557" cy="53.1234" r="3.29936" transform="rotate(-26.5718 236.557 53.1234)" fill="#F3F1FA"></circle><circle cx="312.207" cy="204.381" r="3.29936" transform="rotate(-26.5718 312.207 204.381)" fill="#F3F1FA"></circle><circle cx="112.631" cy="128.627" r="3.29936" transform="rotate(-26.5718 112.631 128.627)" fill="#F3F1FA"></circle><circle cx="188.282" cy="279.885" r="3.29936" transform="rotate(-26.5718 188.282 279.885)" fill="#F3F1FA"></circle><circle cx="241.966" cy="63.9437" r="3.29936" transform="rotate(-26.5718 241.966 63.9437)" fill="#F3F1FA"></circle><circle cx="317.617" cy="215.198" r="3.29936" transform="rotate(-26.5718 317.617 215.198)" fill="#F3F1FA"></circle><circle cx="118.047" cy="139.455" r="3.29936" transform="rotate(-26.5718 118.047 139.455)" fill="#F3F1FA"></circle><circle cx="193.698" cy="290.709" r="3.29936" transform="rotate(-26.5718 193.698 290.709)" fill="#F3F1FA"></circle><circle cx="247.382" cy="74.768" r="3.29936" transform="rotate(-26.5718 247.382 74.768)" fill="#F3F1FA"></circle><circle cx="323.033" cy="226.026" r="3.29936" transform="rotate(-26.5718 323.033 226.026)" fill="#F3F1FA"></circle><circle cx="123.457" cy="150.272" r="3.29936" transform="rotate(-26.5718 123.457 150.272)" fill="#F3F1FA"></circle><circle cx="199.108" cy="301.53" r="3.29936" transform="rotate(-26.5718 199.108 301.53)" fill="#F3F1FA"></circle><circle cx="252.792" cy="85.5844" r="3.29936" transform="rotate(-26.5718 252.792 85.5844)" fill="#F3F1FA"></circle><circle cx="328.443" cy="236.842" r="3.29936" transform="rotate(-26.5718 328.443 236.842)" fill="#F3F1FA"></circle><circle cx="128.866" cy="161.092" r="3.29936" transform="rotate(-26.5718 128.866 161.092)" fill="#F3F1FA"></circle><circle cx="204.517" cy="312.346" r="3.29936" transform="rotate(-26.5718 204.517 312.346)" fill="#F3F1FA"></circle><circle cx="258.201" cy="96.4047" r="3.29936" transform="rotate(-26.5718 258.201 96.4047)" fill="#F3F1FA"></circle><circle cx="333.852" cy="247.659" r="3.29936" transform="rotate(-26.5718 333.852 247.659)" fill="#F3F1FA"></circle><circle cx="134.28" cy="171.912" r="3.29936" transform="rotate(-26.5718 134.28 171.912)" fill="#F3F1FA"></circle><circle cx="209.931" cy="323.166" r="3.29936" transform="rotate(-26.5718 209.931 323.166)" fill="#F3F1FA"></circle><circle cx="263.615" cy="107.225" r="3.29936" transform="rotate(-26.5718 263.615 107.225)" fill="#F3F1FA"></circle><circle cx="339.266" cy="258.483" r="3.29936" transform="rotate(-26.5718 339.266 258.483)" fill="#F3F1FA"></circle><circle cx="139.689" cy="182.729" r="3.29936" transform="rotate(-26.5718 139.689 182.729)" fill="#F3F1FA"></circle><circle cx="215.34" cy="333.987" r="3.29936" transform="rotate(-26.5718 215.34 333.987)" fill="#F3F1FA"></circle><circle cx="269.024" cy="118.041" r="3.29936" transform="rotate(-26.5718 269.024 118.041)" fill="#F3F1FA"></circle><circle cx="344.675" cy="269.299" r="3.29936" transform="rotate(-26.5718 344.675 269.299)" fill="#F3F1FA"></circle><circle cx="145.103" cy="193.549" r="3.29936" transform="rotate(-26.5718 145.103 193.549)" fill="#F3F1FA"></circle><circle cx="220.753" cy="344.807" r="3.29936" transform="rotate(-26.5718 220.753 344.807)" fill="#F3F1FA"></circle><circle cx="274.438" cy="128.862" r="3.29936" transform="rotate(-26.5718 274.438 128.862)" fill="#F3F1FA"></circle><circle cx="350.088" cy="280.12" r="3.29936" transform="rotate(-26.5718 350.088 280.12)" fill="#F3F1FA"></circle><circle cx="150.512" cy="204.37" r="3.29936" transform="rotate(-26.5718 150.512 204.37)" fill="#F3F1FA"></circle><circle cx="226.163" cy="355.623" r="3.29936" transform="rotate(-26.5718 226.163 355.623)" fill="#F3F1FA"></circle><circle cx="279.847" cy="139.682" r="3.29936" transform="rotate(-26.5718 279.847 139.682)" fill="#F3F1FA"></circle><circle cx="355.498" cy="290.94" r="3.29936" transform="rotate(-26.5718 355.498 290.94)" fill="#F3F1FA"></circle><circle cx="155.926" cy="215.19" r="3.29936" transform="rotate(-26.5718 155.926 215.19)" fill="#F3F1FA"></circle><circle cx="231.576" cy="366.444" r="3.29936" transform="rotate(-26.5718 231.576 366.444)" fill="#F3F1FA"></circle><circle cx="285.261" cy="150.502" r="3.29936" transform="rotate(-26.5718 285.261 150.502)" fill="#F3F1FA"></circle><circle cx="360.911" cy="301.76" r="3.29936" transform="rotate(-26.5718 360.911 301.76)" fill="#F3F1FA"></circle><circle cx="161.338" cy="226.01" r="3.29936" transform="rotate(-26.5718 161.338 226.01)" fill="#F3F1FA"></circle><circle cx="236.988" cy="377.268" r="3.29936" transform="rotate(-26.5718 236.988 377.268)" fill="#F3F1FA"></circle><circle cx="290.673" cy="161.327" r="3.29936" transform="rotate(-26.5718 290.673 161.327)" fill="#F3F1FA"></circle><circle cx="366.324" cy="312.58" r="3.29936" transform="rotate(-26.5718 366.324 312.58)" fill="#F3F1FA"></circle><circle cx="101.807" cy="79.9398" r="3.29936" transform="rotate(-26.5718 101.807 79.9398)" fill="#F3F1FA"></circle><circle cx="177.458" cy="231.198" r="3.29936" transform="rotate(-26.5718 177.458 231.198)" fill="#F3F1FA"></circle><circle cx="231.142" cy="15.2523" r="3.29936" transform="rotate(-26.5718 231.142 15.2523)" fill="#F3F1FA"></circle><circle cx="306.793" cy="166.51" r="3.29936" transform="rotate(-26.5718 306.793 166.51)" fill="#F3F1FA"></circle><circle cx="107.216" cy="90.7601" r="3.29936" transform="rotate(-26.5718 107.216 90.7601)" fill="#F3F1FA"></circle><circle cx="182.867" cy="242.014" r="3.29936" transform="rotate(-26.5718 182.867 242.014)" fill="#F3F1FA"></circle><circle cx="236.551" cy="26.0727" r="3.29936" transform="rotate(-26.5718 236.551 26.0727)" fill="#F3F1FA"></circle><circle cx="312.202" cy="177.327" r="3.29936" transform="rotate(-26.5718 312.202 177.327)" fill="#F3F1FA"></circle><circle cx="112.63" cy="101.58" r="3.29936" transform="rotate(-26.5718 112.63 101.58)" fill="#F3F1FA"></circle><circle cx="188.281" cy="252.834" r="3.29936" transform="rotate(-26.5718 188.281 252.834)" fill="#F3F1FA"></circle><circle cx="241.965" cy="36.893" r="3.29936" transform="rotate(-26.5718 241.965 36.893)" fill="#F3F1FA"></circle><circle cx="317.616" cy="188.151" r="3.29936" transform="rotate(-26.5718 317.616 188.151)" fill="#F3F1FA"></circle><circle cx="118.039" cy="112.397" r="3.29936" transform="rotate(-26.5718 118.039 112.397)" fill="#F3F1FA"></circle><circle cx="193.69" cy="263.655" r="3.29936" transform="rotate(-26.5718 193.69 263.655)" fill="#F3F1FA"></circle><circle cx="247.374" cy="47.7094" r="3.29936" transform="rotate(-26.5718 247.374 47.7094)" fill="#F3F1FA"></circle><circle cx="323.025" cy="198.967" r="3.29936" transform="rotate(-26.5718 323.025 198.967)" fill="#F3F1FA"></circle><circle cx="123.453" cy="123.217" r="3.29936" transform="rotate(-26.5718 123.453 123.217)" fill="#F3F1FA"></circle><circle cx="199.103" cy="274.475" r="3.29936" transform="rotate(-26.5718 199.103 274.475)" fill="#F3F1FA"></circle><circle cx="252.788" cy="58.5336" r="3.29936" transform="rotate(-26.5718 252.788 58.5336)" fill="#F3F1FA"></circle><circle cx="328.439" cy="209.787" r="3.29936" transform="rotate(-26.5718 328.439 209.787)" fill="#F3F1FA"></circle><circle cx="128.865" cy="134.041" r="3.29936" transform="rotate(-26.5718 128.865 134.041)" fill="#F3F1FA"></circle><circle cx="204.516" cy="285.299" r="3.29936" transform="rotate(-26.5718 204.516 285.299)" fill="#F3F1FA"></circle><circle cx="258.2" cy="69.3539" r="3.29936" transform="rotate(-26.5718 258.2 69.3539)" fill="#F3F1FA"></circle><circle cx="333.851" cy="220.612" r="3.29936" transform="rotate(-26.5718 333.851 220.612)" fill="#F3F1FA"></circle><circle cx="134.278" cy="144.862" r="3.29936" transform="rotate(-26.5718 134.278 144.862)" fill="#F3F1FA"></circle><circle cx="209.929" cy="296.12" r="3.29936" transform="rotate(-26.5718 209.929 296.12)" fill="#F3F1FA"></circle><circle cx="263.613" cy="80.1742" r="3.29936" transform="rotate(-26.5718 263.613 80.1742)" fill="#F3F1FA"></circle><circle cx="339.264" cy="231.432" r="3.29936" transform="rotate(-26.5718 339.264 231.432)" fill="#F3F1FA"></circle><circle cx="139.688" cy="155.678" r="3.29936" transform="rotate(-26.5718 139.688 155.678)" fill="#F3F1FA"></circle><circle cx="215.339" cy="306.936" r="3.29936" transform="rotate(-26.5718 215.339 306.936)" fill="#F3F1FA"></circle><circle cx="269.023" cy="90.9945" r="3.29936" transform="rotate(-26.5718 269.023 90.9945)" fill="#F3F1FA"></circle><circle cx="344.674" cy="242.248" r="3.29936" transform="rotate(-26.5718 344.674 242.248)" fill="#F3F1FA"></circle><circle cx="145.097" cy="166.498" r="3.29936" transform="rotate(-26.5718 145.097 166.498)" fill="#F3F1FA"></circle><circle cx="220.748" cy="317.756" r="3.29936" transform="rotate(-26.5718 220.748 317.756)" fill="#F3F1FA"></circle><circle cx="274.432" cy="101.811" r="3.29936" transform="rotate(-26.5718 274.432 101.811)" fill="#F3F1FA"></circle><circle cx="350.083" cy="253.069" r="3.29936" transform="rotate(-26.5718 350.083 253.069)" fill="#F3F1FA"></circle><circle cx="150.511" cy="177.319" r="3.29936" transform="rotate(-26.5718 150.511 177.319)" fill="#F3F1FA"></circle><circle cx="226.162" cy="328.577" r="3.29936" transform="rotate(-26.5718 226.162 328.577)" fill="#F3F1FA"></circle><circle cx="279.846" cy="112.631" r="3.29936" transform="rotate(-26.5718 279.846 112.631)" fill="#F3F1FA"></circle><circle cx="355.497" cy="263.889" r="3.29936" transform="rotate(-26.5718 355.497 263.889)" fill="#F3F1FA"></circle><circle cx="155.92" cy="188.135" r="3.29936" transform="rotate(-26.5718 155.92 188.135)" fill="#F3F1FA"></circle><circle cx="231.571" cy="339.393" r="3.29936" transform="rotate(-26.5718 231.571 339.393)" fill="#F3F1FA"></circle><circle cx="285.255" cy="123.452" r="3.29936" transform="rotate(-26.5718 285.255 123.452)" fill="#F3F1FA"></circle><circle cx="360.906" cy="274.705" r="3.29936" transform="rotate(-26.5718 360.906 274.705)" fill="#F3F1FA"></circle><circle cx="161.334" cy="198.959" r="3.29936" transform="rotate(-26.5718 161.334 198.959)" fill="#F3F1FA"></circle><circle cx="236.984" cy="350.213" r="3.29936" transform="rotate(-26.5718 236.984 350.213)" fill="#F3F1FA"></circle><circle cx="290.669" cy="134.272" r="3.29936" transform="rotate(-26.5718 290.669 134.272)" fill="#F3F1FA"></circle><circle cx="366.32" cy="285.526" r="3.29936" transform="rotate(-26.5718 366.32 285.526)" fill="#F3F1FA"></circle><circle cx="166.743" cy="209.776" r="3.29936" transform="rotate(-26.5718 166.743 209.776)" fill="#F3F1FA"></circle><circle cx="242.394" cy="361.034" r="3.29936" transform="rotate(-26.5718 242.394 361.034)" fill="#F3F1FA"></circle><circle cx="296.078" cy="145.088" r="3.29936" transform="rotate(-26.5718 296.078 145.088)" fill="#F3F1FA"></circle><circle cx="371.729" cy="296.346" r="3.29936" transform="rotate(-26.5718 371.729 296.346)" fill="#F3F1FA"></circle><circle cx="172.159" cy="220.6" r="3.29936" transform="rotate(-26.5718 172.159 220.6)" fill="#F3F1FA"></circle><circle cx="247.81" cy="371.858" r="3.29936" transform="rotate(-26.5718 247.81 371.858)" fill="#F3F1FA"></circle><circle cx="301.494" cy="155.916" r="3.29936" transform="rotate(-26.5718 301.494 155.916)" fill="#F3F1FA"></circle><circle cx="377.145" cy="307.17" r="3.29936" transform="rotate(-26.5718 377.145 307.17)" fill="#F3F1FA"></circle><circle cx="112.629" cy="74.5297" r="3.29936" transform="rotate(-26.5718 112.629 74.5297)" fill="#F3F1FA"></circle><circle cx="188.279" cy="225.787" r="3.29936" transform="rotate(-26.5718 188.279 225.787)" fill="#F3F1FA"></circle><circle cx="241.963" cy="9.84218" r="3.29936" transform="rotate(-26.5718 241.963 9.84218)" fill="#F3F1FA"></circle><circle cx="317.614" cy="161.1" r="3.29936" transform="rotate(-26.5718 317.614 161.1)" fill="#F3F1FA"></circle><circle cx="118.038" cy="85.35" r="3.29936" transform="rotate(-26.5718 118.038 85.35)" fill="#F3F1FA"></circle><circle cx="193.689" cy="236.604" r="3.29936" transform="rotate(-26.5718 193.689 236.604)" fill="#F3F1FA"></circle><circle cx="247.373" cy="20.6625" r="3.29936" transform="rotate(-26.5718 247.373 20.6625)" fill="#F3F1FA"></circle><circle cx="323.024" cy="171.916" r="3.29936" transform="rotate(-26.5718 323.024 171.916)" fill="#F3F1FA"></circle><circle cx="123.447" cy="96.1664" r="3.29936" transform="rotate(-26.5718 123.447 96.1664)" fill="#F3F1FA"></circle><circle cx="199.098" cy="247.424" r="3.29936" transform="rotate(-26.5718 199.098 247.424)" fill="#F3F1FA"></circle><circle cx="252.782" cy="31.4789" r="3.29936" transform="rotate(-26.5718 252.782 31.4789)" fill="#F3F1FA"></circle><circle cx="328.433" cy="182.737" r="3.29936" transform="rotate(-26.5718 328.433 182.737)" fill="#F3F1FA"></circle><circle cx="128.861" cy="106.987" r="3.29936" transform="rotate(-26.5718 128.861 106.987)" fill="#F3F1FA"></circle><circle cx="204.512" cy="258.245" r="3.29936" transform="rotate(-26.5718 204.512 258.245)" fill="#F3F1FA"></circle><circle cx="258.196" cy="42.2992" r="3.29936" transform="rotate(-26.5718 258.196 42.2992)" fill="#F3F1FA"></circle><circle cx="333.847" cy="193.557" r="3.29936" transform="rotate(-26.5718 333.847 193.557)" fill="#F3F1FA"></circle><circle cx="134.27" cy="117.807" r="3.29936" transform="rotate(-26.5718 134.27 117.807)" fill="#F3F1FA"></circle><circle cx="209.921" cy="269.061" r="3.29936" transform="rotate(-26.5718 209.921 269.061)" fill="#F3F1FA"></circle><circle cx="263.605" cy="53.1195" r="3.29936" transform="rotate(-26.5718 263.605 53.1195)" fill="#F3F1FA"></circle><circle cx="339.256" cy="204.373" r="3.29936" transform="rotate(-26.5718 339.256 204.373)" fill="#F3F1FA"></circle><circle cx="139.686" cy="128.631" r="3.29936" transform="rotate(-26.5718 139.686 128.631)" fill="#F3F1FA"></circle><circle cx="215.337" cy="279.889" r="3.29936" transform="rotate(-26.5718 215.337 279.889)" fill="#F3F1FA"></circle><circle cx="269.022" cy="63.9437" r="3.29936" transform="rotate(-26.5718 269.022 63.9437)" fill="#F3F1FA"></circle><circle cx="344.672" cy="215.202" r="3.29936" transform="rotate(-26.5718 344.672 215.202)" fill="#F3F1FA"></circle><circle cx="145.096" cy="139.448" r="3.29936" transform="rotate(-26.5718 145.096 139.448)" fill="#F3F1FA"></circle><circle cx="220.747" cy="290.705" r="3.29936" transform="rotate(-26.5718 220.747 290.705)" fill="#F3F1FA"></circle><circle cx="274.431" cy="74.7641" r="3.29936" transform="rotate(-26.5718 274.431 74.7641)" fill="#F3F1FA"></circle><circle cx="350.082" cy="226.018" r="3.29936" transform="rotate(-26.5718 350.082 226.018)" fill="#F3F1FA"></circle><circle cx="150.509" cy="150.268" r="3.29936" transform="rotate(-26.5718 150.509 150.268)" fill="#F3F1FA"></circle><circle cx="226.16" cy="301.526" r="3.29936" transform="rotate(-26.5718 226.16 301.526)" fill="#F3F1FA"></circle><circle cx="279.845" cy="85.5844" r="3.29936" transform="rotate(-26.5718 279.845 85.5844)" fill="#F3F1FA"></circle><circle cx="355.495" cy="236.838" r="3.29936" transform="rotate(-26.5718 355.495 236.838)" fill="#F3F1FA"></circle><circle cx="155.919" cy="161.088" r="3.29936" transform="rotate(-26.5718 155.919 161.088)" fill="#F3F1FA"></circle><circle cx="231.57" cy="312.346" r="3.29936" transform="rotate(-26.5718 231.57 312.346)" fill="#F3F1FA"></circle><circle cx="285.254" cy="96.4008" r="3.29936" transform="rotate(-26.5718 285.254 96.4008)" fill="#F3F1FA"></circle><circle cx="360.905" cy="247.659" r="3.29936" transform="rotate(-26.5718 360.905 247.659)" fill="#F3F1FA"></circle><circle cx="161.328" cy="171.905" r="3.29936" transform="rotate(-26.5718 161.328 171.905)" fill="#F3F1FA"></circle><circle cx="236.979" cy="323.163" r="3.29936" transform="rotate(-26.5718 236.979 323.163)" fill="#F3F1FA"></circle><circle cx="290.663" cy="107.221" r="3.29936" transform="rotate(-26.5718 290.663 107.221)" fill="#F3F1FA"></circle><circle cx="366.314" cy="258.475" r="3.29936" transform="rotate(-26.5718 366.314 258.475)" fill="#F3F1FA"></circle><circle cx="166.742" cy="182.725" r="3.29936" transform="rotate(-26.5718 166.742 182.725)" fill="#F3F1FA"></circle><circle cx="242.393" cy="333.983" r="3.29936" transform="rotate(-26.5718 242.393 333.983)" fill="#F3F1FA"></circle><circle cx="296.077" cy="118.041" r="3.29936" transform="rotate(-26.5718 296.077 118.041)" fill="#F3F1FA"></circle><circle cx="371.728" cy="269.295" r="3.29936" transform="rotate(-26.5718 371.728 269.295)" fill="#F3F1FA"></circle><circle cx="172.151" cy="193.545" r="3.29936" transform="rotate(-26.5718 172.151 193.545)" fill="#F3F1FA"></circle><circle cx="247.802" cy="344.803" r="3.29936" transform="rotate(-26.5718 247.802 344.803)" fill="#F3F1FA"></circle><circle cx="301.486" cy="128.858" r="3.29936" transform="rotate(-26.5718 301.486 128.858)" fill="#F3F1FA"></circle><circle cx="377.137" cy="280.116" r="3.29936" transform="rotate(-26.5718 377.137 280.116)" fill="#F3F1FA"></circle><circle cx="177.565" cy="204.366" r="3.29936" transform="rotate(-26.5718 177.565 204.366)" fill="#F3F1FA"></circle><circle cx="253.216" cy="355.623" r="3.29936" transform="rotate(-26.5718 253.216 355.623)" fill="#F3F1FA"></circle><circle cx="306.9" cy="139.678" r="3.29936" transform="rotate(-26.5718 306.9 139.678)" fill="#F3F1FA"></circle><circle cx="382.551" cy="290.936" r="3.29936" transform="rotate(-26.5718 382.551 290.936)" fill="#F3F1FA"></circle><circle cx="182.977" cy="215.19" r="3.29936" transform="rotate(-26.5718 182.977 215.19)" fill="#F3F1FA"></circle><circle cx="258.628" cy="366.444" r="3.29936" transform="rotate(-26.5718 258.628 366.444)" fill="#F3F1FA"></circle><circle cx="312.312" cy="150.502" r="3.29936" transform="rotate(-26.5718 312.312 150.502)" fill="#F3F1FA"></circle><circle cx="387.963" cy="301.756" r="3.29936" transform="rotate(-26.5718 387.963 301.756)" fill="#F3F1FA"></circle><circle cx="123.446" cy="69.1156" r="3.29936" transform="rotate(-26.5718 123.446 69.1156)" fill="#F3F1FA"></circle><circle cx="199.097" cy="220.373" r="3.29936" transform="rotate(-26.5718 199.097 220.373)" fill="#F3F1FA"></circle><circle cx="252.781" cy="4.43203" r="3.29936" transform="rotate(-26.5718 252.781 4.43203)" fill="#F3F1FA"></circle><circle cx="328.432" cy="155.686" r="3.29936" transform="rotate(-26.5718 328.432 155.686)" fill="#F3F1FA"></circle><circle cx="128.86" cy="79.9359" r="3.29936" transform="rotate(-26.5718 128.86 79.9359)" fill="#F3F1FA"></circle><circle cx="204.51" cy="231.194" r="3.29936" transform="rotate(-26.5718 204.51 231.194)" fill="#F3F1FA"></circle><circle cx="258.195" cy="15.2523" r="3.29936" transform="rotate(-26.5718 258.195 15.2523)" fill="#F3F1FA"></circle><circle cx="333.845" cy="166.506" r="3.29936" transform="rotate(-26.5718 333.845 166.506)" fill="#F3F1FA"></circle><circle cx="134.269" cy="90.7562" r="3.29936" transform="rotate(-26.5718 134.269 90.7562)" fill="#F3F1FA"></circle><circle cx="209.92" cy="242.014" r="3.29936" transform="rotate(-26.5718 209.92 242.014)" fill="#F3F1FA"></circle><circle cx="263.604" cy="26.0687" r="3.29936" transform="rotate(-26.5718 263.604 26.0687)" fill="#F3F1FA"></circle><circle cx="339.255" cy="177.327" r="3.29936" transform="rotate(-26.5718 339.255 177.327)" fill="#F3F1FA"></circle><circle cx="139.679" cy="101.573" r="3.29936" transform="rotate(-26.5718 139.679 101.573)" fill="#F3F1FA"></circle><circle cx="215.329" cy="252.83" r="3.29936" transform="rotate(-26.5718 215.329 252.83)" fill="#F3F1FA"></circle><circle cx="269.014" cy="36.8891" r="3.29936" transform="rotate(-26.5718 269.014 36.8891)" fill="#F3F1FA"></circle><circle cx="344.664" cy="188.143" r="3.29936" transform="rotate(-26.5718 344.664 188.143)" fill="#F3F1FA"></circle><circle cx="145.092" cy="112.393" r="3.29936" transform="rotate(-26.5718 145.092 112.393)" fill="#F3F1FA"></circle><circle cx="220.743" cy="263.651" r="3.29936" transform="rotate(-26.5718 220.743 263.651)" fill="#F3F1FA"></circle><circle cx="274.427" cy="47.7094" r="3.29936" transform="rotate(-26.5718 274.427 47.7094)" fill="#F3F1FA"></circle><circle cx="350.078" cy="198.963" r="3.29936" transform="rotate(-26.5718 350.078 198.963)" fill="#F3F1FA"></circle><circle cx="150.504" cy="123.217" r="3.29936" transform="rotate(-26.5718 150.504 123.217)" fill="#F3F1FA"></circle><circle cx="226.155" cy="274.475" r="3.29936" transform="rotate(-26.5718 226.155 274.475)" fill="#F3F1FA"></circle><circle cx="279.839" cy="58.5297" r="3.29936" transform="rotate(-26.5718 279.839 58.5297)" fill="#F3F1FA"></circle><circle cx="355.49" cy="209.787" r="3.29936" transform="rotate(-26.5718 355.49 209.787)" fill="#F3F1FA"></circle><circle cx="155.918" cy="134.037" r="3.29936" transform="rotate(-26.5718 155.918 134.037)" fill="#F3F1FA"></circle><circle cx="231.568" cy="285.295" r="3.29936" transform="rotate(-26.5718 231.568 285.295)" fill="#F3F1FA"></circle><circle cx="285.253" cy="69.35" r="3.29936" transform="rotate(-26.5718 285.253 69.35)" fill="#F3F1FA"></circle><circle cx="360.903" cy="220.608" r="3.29936" transform="rotate(-26.5718 360.903 220.608)" fill="#F3F1FA"></circle><circle cx="161.327" cy="144.858" r="3.29936" transform="rotate(-26.5718 161.327 144.858)" fill="#F3F1FA"></circle><circle cx="236.978" cy="296.112" r="3.29936" transform="rotate(-26.5718 236.978 296.112)" fill="#F3F1FA"></circle><circle cx="290.662" cy="80.1703" r="3.29936" transform="rotate(-26.5718 290.662 80.1703)" fill="#F3F1FA"></circle><circle cx="366.313" cy="231.428" r="3.29936" transform="rotate(-26.5718 366.313 231.428)" fill="#F3F1FA"></circle><circle cx="166.741" cy="155.678" r="3.29936" transform="rotate(-26.5718 166.741 155.678)" fill="#F3F1FA"></circle><circle cx="242.391" cy="306.932" r="3.29936" transform="rotate(-26.5718 242.391 306.932)" fill="#F3F1FA"></circle><circle cx="296.076" cy="90.9906" r="3.29936" transform="rotate(-26.5718 296.076 90.9906)" fill="#F3F1FA"></circle><circle cx="371.726" cy="242.248" r="3.29936" transform="rotate(-26.5718 371.726 242.248)" fill="#F3F1FA"></circle><circle cx="172.15" cy="166.495" r="3.29936" transform="rotate(-26.5718 172.15 166.495)" fill="#F3F1FA"></circle><circle cx="247.801" cy="317.752" r="3.29936" transform="rotate(-26.5718 247.801 317.752)" fill="#F3F1FA"></circle><circle cx="301.485" cy="101.807" r="3.29936" transform="rotate(-26.5718 301.485 101.807)" fill="#F3F1FA"></circle><circle cx="377.136" cy="253.065" r="3.29936" transform="rotate(-26.5718 377.136 253.065)" fill="#F3F1FA"></circle><circle cx="177.56" cy="177.315" r="3.29936" transform="rotate(-26.5718 177.56 177.315)" fill="#F3F1FA"></circle><circle cx="253.21" cy="328.569" r="3.29936" transform="rotate(-26.5718 253.21 328.569)" fill="#F3F1FA"></circle><circle cx="306.895" cy="112.627" r="3.29936" transform="rotate(-26.5718 306.895 112.627)" fill="#F3F1FA"></circle><circle cx="382.545" cy="263.885" r="3.29936" transform="rotate(-26.5718 382.545 263.885)" fill="#F3F1FA"></circle><circle cx="182.973" cy="188.135" r="3.29936" transform="rotate(-26.5718 182.973 188.135)" fill="#F3F1FA"></circle><circle cx="258.624" cy="339.389" r="3.29936" transform="rotate(-26.5718 258.624 339.389)" fill="#F3F1FA"></circle><circle cx="312.308" cy="123.448" r="3.29936" transform="rotate(-26.5718 312.308 123.448)" fill="#F3F1FA"></circle><circle cx="387.959" cy="274.705" r="3.29936" transform="rotate(-26.5718 387.959 274.705)" fill="#F3F1FA"></circle><circle cx="188.383" cy="198.952" r="3.29936" transform="rotate(-26.5718 188.383 198.952)" fill="#F3F1FA"></circle><circle cx="264.033" cy="350.209" r="3.29936" transform="rotate(-26.5718 264.033 350.209)" fill="#F3F1FA"></circle><circle cx="317.717" cy="134.264" r="3.29936" transform="rotate(-26.5718 317.717 134.264)" fill="#F3F1FA"></circle><circle cx="393.368" cy="285.522" r="3.29936" transform="rotate(-26.5718 393.368 285.522)" fill="#F3F1FA"></circle><circle cx="193.799" cy="209.78" r="3.29936" transform="rotate(-26.5718 193.799 209.78)" fill="#F3F1FA"></circle><circle cx="269.449" cy="361.034" r="3.29936" transform="rotate(-26.5718 269.449 361.034)" fill="#F3F1FA"></circle><circle cx="323.134" cy="145.092" r="3.29936" transform="rotate(-26.5718 323.134 145.092)" fill="#F3F1FA"></circle><circle cx="398.784" cy="296.346" r="3.29936" transform="rotate(-26.5718 398.784 296.346)" fill="#F3F1FA"></circle></svg>