<svg xmlns="http://www.w3.org/2000/svg" xmlns:xlink="http://www.w3.org/1999/xlink" width="300" height="300" viewBox="0 0 300 300"><defs><circle id="a" cx="150" cy="150" r="150"/><linearGradient id="b" x1="50%" x2="50%" y1="98.012%" y2="5.507%"><stop offset="0%" stop-color="#EC7739"/><stop offset="100%" stop-color="#F8A477"/></linearGradient></defs><g fill="none" fill-rule="evenodd"><mask id="c" fill="#fff"><use xlink:href="#a"/></mask><use fill="#D8D8D8" xlink:href="#a"/><g fill="url(#b)" mask="url(#c)"><path d="M-15-5h320v320H-15z"/></g><path fill="#FFF" d="M241.51 141.981l-80.773-78.586c-4.648-4.527-12.193-4.527-16.848 0l-16.773 16.32 21.277 20.702c4.945-1.625 10.614-.535 14.556 3.3 3.96 3.86 5.073 9.423 3.362 14.25l20.505 19.952c4.961-1.663 10.686-.587 14.648 3.274 5.537 5.386 5.537 14.116 0 19.506-5.54 5.39-14.512 5.39-20.053 0-4.165-4.057-5.194-10.01-3.085-15.003l-19.124-18.606-.002 48.965a14.323 14.323 0 0 1 3.75 2.609c5.537 5.385 5.537 14.115 0 19.509-5.54 5.388-14.516 5.388-20.047 0-5.538-5.394-5.538-14.124 0-19.51a14.238 14.238 0 0 1 4.64-3.01v-49.42a14.038 14.038 0 0 1-4.64-3.01c-4.196-4.077-5.205-10.067-3.055-15.08l-20.973-20.41-55.384 53.885c-4.655 4.53-4.655 11.872 0 16.399l80.774 78.588c4.65 4.527 12.193 4.527 16.85 0l80.396-78.223a11.38 11.38 0 0 0 0-16.4" mask="url(#c)"/></g></svg>