<svg width="134" height="134" xmlns="http://www.w3.org/2000/svg"><defs><linearGradient x1="50%" y1="0%" x2="50%" y2="97.043%" id="a"><stop stop-color="#E689D5" offset="0%"/><stop stop-color="#B4479F" offset="100%"/></linearGradient></defs><g fill="none" fill-rule="evenodd"><circle fill="url(#a)" cx="67" cy="67" r="67"/><path d="M68.329 88.179v7.476h6.788v2.887h-6.788v7.477h-3.234v-7.477h-6.787v-2.887h6.787V88.18h3.234zM47.553 73.04v10.72H57.56v3.268H47.553v10.721h-3.786V87.028H33.764v-3.269h10.003V73.04h3.786zm41.976 0v10.72h10.003v3.268H89.529v10.721h-3.79V87.028H75.736v-3.269h10.003V73.04h3.79zM68.843 52.238v11.974h11.166v4.254H68.843v11.971h-4.39v-11.97H53.286v-4.255h11.167V52.238h4.39zm31.588 5.183v7.475h6.787v2.886h-6.787v7.477h-3.234v-7.477h-6.788v-2.886h6.788V57.42h3.234zm-65.323.57v7.192h6.74V67.4l-6.74.04v7.247H32.74v-7.233l-6.74.04v-2.312h6.74V57.99h2.368zm54.42-23.349v10.771h10.004v3.266H89.529V59.35h-3.79V48.68H75.736v-3.266h10.003v-10.77h3.79zm-42.092 0v10.77h10.123v3.17H47.436V59.35h-3.55V48.583H33.765V45.41h10.123v-10.77h3.549zM67.919 27v7.335h6.715v2.22H67.92v7.335h-2.415v-7.335H58.79v-2.22h6.714V27h2.415z" fill="#FFF"/></g></svg>