<svg width="134" height="134" xmlns="http://www.w3.org/2000/svg" xmlns:xlink="http://www.w3.org/1999/xlink"><defs><linearGradient x1="50%" y1="0%" x2="50%" y2="100%" id="b"><stop stop-color="#34A6D0" offset="0%"/><stop stop-color="#3C5A88" offset="100%"/></linearGradient><circle id="a" cx="67" cy="67" r="67"/></defs><g fill="none" fill-rule="evenodd"><mask id="c" fill="#fff"><use xlink:href="#a"/></mask><use fill="#D8D8D8" xlink:href="#a"/><path fill="url(#b)" mask="url(#c)" d="M-3.35-.838h140v136h-140z"/><path d="M51.239 27.637c6.614 0 12.038 5.1 12.56 11.585l.04-.024v11.888l-.125.002c-7.647.407-12.16-2.301-14.134-8.327l-.101-.32a2.244 2.244 0 00-4.291 1.317c2.517 8.199 8.828 12.21 18.33 11.832l.322-.017V94.59c0 6.964-5.642 12.61-12.601 12.61a12.586 12.586 0 01-10.47-5.59 9.982 9.982 0 01-1.023-4.418c0-5.536 4.488-10.023 10.024-10.023a2.244 2.244 0 100-4.488c-1.654 0-3.244.277-4.724.786.753-2.42 1.039-4.559.842-6.434a2.244 2.244 0 00-4.464.47c.259 2.465-.864 6.183-3.47 11.033a2.21 2.21 0 00-.199.515 14.433 14.433 0 00-2.483 7.5c-4.86-1.75-8.334-6.403-8.334-11.869 0-2.033.48-3.954 1.335-5.655a12.61 12.61 0 01-7.335-11.458c0-.74.063-1.465.185-2.17.999-4.658 5.14-8.15 10.095-8.15 3.407 0 6.524 1.661 8.438 4.374-1.126 1.039-1.974 2.448-2.507 4.218a2.244 2.244 0 104.297 1.294c.811-2.69 2.583-3.627 6.154-3.023a2.244 2.244 0 10.75-4.425c-1.696-.287-3.244-.3-4.618-.043a14.8 14.8 0 00-12.514-6.884c-1.346 0-2.65.18-3.89.517a12.6 12.6 0 01-.39-3.122c0-6.758 5.313-12.275 11.987-12.595 1.231-5.673 6.277-9.923 12.314-9.923zm31.522 0c4.446 0 8.353 2.304 10.597 5.784a14.353 14.353 0 00-5.252 2.744l-.324.275-.126.034c-.1.031-.2.07-.297.115-2.582 1.216-4.626 1.393-6.25.68a2.244 2.244 0 00-1.805 4.11c1.404.616 2.905.871 4.49.78a14.538 14.538 0 00-.876 3.684 2.244 2.244 0 004.464.464 9.935 9.935 0 017.636-8.677l.266-.059.098.007c6.53.472 11.68 5.923 11.68 12.577 0 .533-.033 1.058-.097 1.573-6.251-1.867-13.169.767-16.657 6.817a2.24 2.24 0 00-.239.597c-1.462-.187-3.094-.036-4.865.46a2.244 2.244 0 101.209 4.322c3.29-.92 5.02-.224 6.043 2.219a2.244 2.244 0 004.14-1.734c-.567-1.352-1.313-2.45-2.217-3.292l-.25-.223.067-.108c2.421-4.199 7.142-6.02 11.425-4.773l-.019.04a12.613 12.613 0 017.46 11.516 12.61 12.61 0 01-7.335 11.458 12.565 12.565 0 011.335 5.655c0 5.918-4.072 10.883-9.566 12.242l.057-.012c-4.34.982-7.228-.672-9.33-5.546a2.638 2.638 0 00-3.468-1.368 2.632 2.632 0 00-1.387 3.457c2.125 4.929 5.346 7.908 9.44 8.744a12.573 12.573 0 01-10.047 5.001c-6.857 0-12.434-5.48-12.597-12.304l-.004-.306V78.643l5.95.001c.432 1.645 1.424 3.167 2.985 4.513a2.244 2.244 0 102.931-3.4c-2.128-1.835-2.263-3.834-.258-6.85a2.244 2.244 0 10-3.738-2.485c-.75 1.128-1.307 2.24-1.668 3.328l-.127.406H70.16l.001-34.958.041.024c.522-6.485 5.946-11.585 12.56-11.585zm12.314 9.923l.212.012h-.003l-.209-.012z" fill="#FFF"/></g></svg>