<svg width="42" height="42" xmlns="http://www.w3.org/2000/svg" xmlns:xlink="http://www.w3.org/1999/xlink"><defs><linearGradient x1="82.617%" y1="15.111%" x2="13.975%" y2="84.102%" id="b"><stop stop-color="#2DBD7B" offset="0%"/><stop stop-color="#09874A" offset="100%"/></linearGradient><circle id="a" cx="21" cy="21" r="21"/></defs><g fill="none" fill-rule="evenodd"><mask id="c" fill="#fff"><use xlink:href="#a"/></mask><use fill="url(#b)" xlink:href="#a"/><g mask="url(#c)"><path d="M22.585 9.71l-.002 2.138h8.918c.411 0 .75.31.8.71l.007.102v15.617a.81.81 0 0 1-.807.812h-8.924v2.159L9.692 28.906v-16.89l12.893-2.307zm-.003 4.371l3.05.001v1.956h-3.05v.746h3.05v1.957h-3.05l-.002.745 3.053.001v1.956H22.58v.746h3.053v1.957h-3.054v.75h3.054v1.867h-3.055v1.58h8.985V12.59h-8.98v1.491zm7.405 10.815v1.863h-3.614v-1.863h3.614zM18.462 16.66l-1.59.073-1.143 2.699-.95-2.598-1.632.078 1.683 3.564-1.772 3.526 1.51.086 1.103-2.684 1.127 2.812 1.714.1-1.895-3.84 1.845-3.816zm11.525 5.53v1.956h-3.614V22.19h3.614zm0-2.703v1.956h-3.614v-1.956h3.614zm0-2.702v1.956h-3.614v-1.956h3.614zm0-2.703v1.956h-3.614v-1.956h3.614z" fill="#FFF" fill-rule="nonzero"/></g></g></svg>